<?xml version="1.0" encoding="utf-8"?>
<!-- Generator: Adobe Illustrator 24.1.0, SVG Export Plug-In . SVG Version: 6.00 Build 0)  -->
<svg version="1.1" id="图层_1" xmlns="http://www.w3.org/2000/svg" xmlns:xlink="http://www.w3.org/1999/xlink" x="0px" y="0px"
	 viewBox="0 0 96.6 100.4" style="enable-background:new 0 0 96.6 100.4;" xml:space="preserve">
<style type="text/css">
	.st0{opacity:0.3;}
	.st1{fill:url(#SVGID_1_);}
	.st2{fill:url(#SVGID_2_);}
	.st3{fill:url(#SVGID_3_);}
	.st4{fill:url(#SVGID_4_);}
	.st5{fill:url(#SVGID_5_);}
	.st6{fill:url(#SVGID_6_);}
	.st7{opacity:0.3;fill:url(#SVGID_7_);enable-background:new    ;}
	.st8{fill:url(#SVGID_8_);}
	.st9{fill:url(#SVGID_9_);}
	.st10{fill:url(#SVGID_10_);}
	.st11{fill:url(#SVGID_11_);}
	.st12{fill:url(#SVGID_12_);}
	.st13{fill:url(#SVGID_13_);}
	.st14{fill:url(#SVGID_14_);}
	.st15{fill:url(#SVGID_15_);}
	.st16{fill:url(#SVGID_16_);}
	.st17{fill:url(#SVGID_17_);}
	.st18{fill:url(#SVGID_18_);}
	.st19{fill:url(#SVGID_19_);}
	.st20{fill:url(#SVGID_20_);}
	.st21{fill:url(#SVGID_21_);}
	.st22{fill:url(#SVGID_22_);}
	.st23{fill:url(#SVGID_23_);}
	.st24{fill:url(#SVGID_24_);}
	.st25{fill:url(#SVGID_25_);}
	.st26{opacity:0.3;fill:url(#SVGID_26_);enable-background:new    ;}
	.st27{fill:url(#SVGID_27_);}
	.st28{fill:url(#SVGID_28_);}
	.st29{fill:url(#SVGID_29_);}
	.st30{fill:url(#SVGID_30_);}
	.st31{fill:url(#SVGID_31_);}
	.st32{fill:url(#SVGID_32_);}
	.st33{fill:url(#SVGID_33_);}
	.st34{fill:url(#SVGID_34_);}
	.st35{fill:url(#SVGID_35_);}
	.st36{fill:url(#SVGID_36_);}
	.st37{fill:url(#SVGID_37_);}
	.st38{fill:url(#SVGID_38_);}
	.st39{fill:url(#SVGID_39_);}
	.st40{fill:url(#SVGID_40_);}
	.st41{fill:url(#SVGID_41_);}
	.st42{fill:url(#SVGID_42_);}
	.st43{fill:url(#SVGID_43_);}
	.st44{fill:url(#SVGID_44_);}
	.st45{fill:url(#SVGID_45_);}
	.st46{fill:url(#SVGID_46_);}
	.st47{fill:url(#SVGID_47_);}
	.st48{fill:url(#SVGID_48_);}
	.st49{fill:url(#SVGID_49_);}
	.st50{fill:url(#SVGID_50_);}
	.st51{fill:url(#SVGID_51_);}
	.st52{fill:url(#SVGID_52_);}
	.st53{fill:url(#SVGID_53_);}
	.st54{fill:url(#SVGID_54_);}
	.st55{fill:url(#SVGID_55_);}
	.st56{fill:url(#SVGID_56_);}
	.st57{fill:url(#SVGID_57_);}
	.st58{fill:url(#SVGID_58_);}
	.st59{fill:url(#SVGID_59_);}
	.st60{fill:url(#SVGID_60_);}
	.st61{fill:url(#SVGID_61_);}
	.st62{fill:url(#SVGID_62_);}
	.st63{fill:url(#SVGID_63_);}
	.st64{fill:url(#SVGID_64_);}
	.st65{fill:url(#SVGID_65_);}
	.st66{fill:url(#SVGID_66_);}
	.st67{fill:url(#SVGID_67_);}
	.st68{fill:url(#SVGID_68_);}
	.st69{fill:url(#SVGID_69_);}
	.st70{fill:url(#SVGID_70_);}
	.st71{fill:url(#SVGID_71_);}
	.st72{fill:url(#SVGID_72_);}
	.st73{fill:url(#SVGID_73_);}
	.st74{fill:url(#SVGID_74_);}
	.st75{fill:#00AF92;stroke:#00AF92;stroke-width:0.75;stroke-linecap:round;stroke-linejoin:round;}
	.st76{opacity:0.15;fill:#00AF92;enable-background:new    ;}
	.st77{fill:none;stroke:#00AF92;stroke-width:0.75;stroke-linecap:round;stroke-linejoin:round;}
	@keyframes a1 {
        15% {transform: translate(3px,0)}
        50% {transform: translate(5px, 0)}
        85% {transform: translate(0, 0)}
	}
    @keyframes a2 {
        50% {transform: rotate(6deg);}
    }
    @keyframes a3 {
        50% {transform: rotate(-90deg);}
    }
	.a1 {animation:a1 3s linear infinite;}
	.a2 {transform-origin: 51px 50px;animation:a2 2s linear infinite;}
	.a3 {transform-origin: 51px 50px;animation: a3 3s infinite;}
</style>
<g id="图层_2_1_">
	<g id="Diagram">
		<g class="st0">
			<g>
				
					<linearGradient id="SVGID_1_" gradientUnits="userSpaceOnUse" x1="72.0665" y1="74.18" x2="72.0665" y2="51.37" gradientTransform="matrix(1 0 0 -1 0 102)">
					<stop  offset="0" style="stop-color:#CCCCCC;stop-opacity:0.8"/>
					<stop  offset="1" style="stop-color:#999999;stop-opacity:0.4"/>
				</linearGradient>
				<path class="st1" d="M52.7,50.6c-0.2,0-0.4-0.2-0.4-0.4c0-0.2,0.1-0.3,0.2-0.4l38.7-22c0.2-0.1,0.5-0.1,0.6,0.1
					c0.1,0.2,0.1,0.5-0.1,0.6c0,0,0,0-0.1,0l-38.7,22C52.9,50.6,52.8,50.6,52.7,50.6z"/>
			</g>
			<g>
				
					<linearGradient id="SVGID_2_" gradientUnits="userSpaceOnUse" x1="33.3565" y1="97.1923" x2="33.3565" y2="73.3398" gradientTransform="matrix(1 0 0 -1 0 102)">
					<stop  offset="0" style="stop-color:#CCCCCC;stop-opacity:0.8"/>
					<stop  offset="1" style="stop-color:#999999;stop-opacity:0.4"/>
				</linearGradient>
				<path class="st2" d="M14,28.7c-0.1,0-0.3-0.1-0.4-0.2c-0.1-0.2-0.1-0.5,0.1-0.6c0,0,0,0,0,0l38.7-23c0.2-0.1,0.5-0.1,0.6,0.1
					c0.1,0.2,0.1,0.5-0.1,0.6c0,0,0,0,0,0l-38.7,23C14.1,28.6,14.1,28.7,14,28.7z"/>
			</g>
			<g>
				
					<linearGradient id="SVGID_3_" gradientUnits="userSpaceOnUse" x1="1171.855" y1="-2684.1599" x2="1171.855" y2="-2638.3501" gradientTransform="matrix(-1 0 0 1 1185.85 2711.99)">
					<stop  offset="0" style="stop-color:#CCCCCC;stop-opacity:0.8"/>
					<stop  offset="1" style="stop-color:#999999;stop-opacity:0.4"/>
				</linearGradient>
				<path class="st3" d="M14,73.6c-0.2,0-0.4-0.2-0.4-0.4v-45c0-0.2,0.1-0.4,0.4-0.5c0.2,0,0.4,0.1,0.5,0.4c0,0,0,0.1,0,0.1v45
					C14.4,73.4,14.2,73.6,14,73.6C14,73.6,14,73.6,14,73.6z"/>
			</g>
			<g>
				
					<linearGradient id="SVGID_4_" gradientUnits="userSpaceOnUse" x1="91.41" y1="28.36" x2="91.41" y2="74.2012" gradientTransform="matrix(1 0 0 -1 0 102)">
					<stop  offset="0" style="stop-color:#CCCCCC;stop-opacity:0.8"/>
					<stop  offset="1" style="stop-color:#999999;stop-opacity:0.4"/>
				</linearGradient>
				<path class="st4" d="M91.4,73.6c-0.2,0-0.4-0.2-0.4-0.4v-45c0-0.2,0.2-0.4,0.4-0.4s0.4,0.2,0.4,0.4c0,0,0,0,0,0v45
					C91.8,73.5,91.6,73.6,91.4,73.6z"/>
			</g>
			<g>
				
					<linearGradient id="SVGID_5_" gradientUnits="userSpaceOnUse" x1="52.7051" y1="6.4" x2="52.7051" y2="52.24" gradientTransform="matrix(1 0 0 -1 0 102)">
					<stop  offset="0" style="stop-color:#CCCCCC;stop-opacity:0.8"/>
					<stop  offset="1" style="stop-color:#999999;stop-opacity:0.4"/>
				</linearGradient>
				<path class="st5" d="M52.7,95.6c-0.2,0-0.4-0.2-0.4-0.4v-45c0-0.2,0.2-0.4,0.4-0.4c0.2,0,0.4,0.2,0.4,0.4c0,0,0,0,0,0v45
					C53.1,95.4,52.9,95.6,52.7,95.6C52.7,95.6,52.7,95.6,52.7,95.6z"/>
			</g>
			<g>
				
					<linearGradient id="SVGID_6_" gradientUnits="userSpaceOnUse" x1="1207.145" y1="-2703.3601" x2="1207.145" y2="-2749.2" gradientTransform="matrix(-1 0 0 1 1259.8501 2753.99)">
					<stop  offset="0" style="stop-color:#CCCCCC;stop-opacity:0.8"/>
					<stop  offset="1" style="stop-color:#999999;stop-opacity:0.4"/>
				</linearGradient>
				<path class="st6" d="M52.7,50.6c-0.2,0-0.4-0.2-0.4-0.4v-45c0-0.2,0.2-0.4,0.4-0.4c0.2,0,0.4,0.2,0.4,0.4c0,0,0,0,0,0v45
					C53.1,50.4,52.9,50.6,52.7,50.6C52.7,50.6,52.7,50.6,52.7,50.6z"/>
			</g>
			<g>
				
					<linearGradient id="SVGID_7_" gradientUnits="userSpaceOnUse" x1="29.6344" y1="31.0651" x2="106.7944" y2="100.3651" gradientTransform="matrix(1 0 0 -1 0 102)">
					<stop  offset="0" style="stop-color:#808080"/>
					<stop  offset="1" style="stop-color:#808080"/>
				</linearGradient>
				<circle class="st7" cx="52.7" cy="50.2" r="29.3"/>
			</g>
			<g>
				
					<linearGradient id="SVGID_8_" gradientUnits="userSpaceOnUse" x1="46.1123" y1="90.0878" x2="57.8223" y2="101.9478" gradientTransform="matrix(1 0 0 -1 0 102)">
					<stop  offset="0" style="stop-color:#CCCCCC;stop-opacity:0.8"/>
					<stop  offset="1" style="stop-color:#999999;stop-opacity:0.4"/>
				</linearGradient>
				<circle class="st8" cx="52.7" cy="5.2" r="5.2"/>
			</g>
			<g>
				
					<linearGradient id="SVGID_9_" gradientUnits="userSpaceOnUse" x1="7.4123" y1="67.0778" x2="19.1223" y2="78.9378" gradientTransform="matrix(1 0 0 -1 0 102)">
					<stop  offset="0" style="stop-color:#CCCCCC;stop-opacity:0.8"/>
					<stop  offset="1" style="stop-color:#999999;stop-opacity:0.4"/>
				</linearGradient>
				<circle class="st9" cx="14" cy="28.2" r="5.2"/>
			</g>
			<g>
				
					<linearGradient id="SVGID_10_" gradientUnits="userSpaceOnUse" x1="84.8123" y1="67.0778" x2="96.5223" y2="78.9378" gradientTransform="matrix(1 0 0 -1 0 102)">
					<stop  offset="0" style="stop-color:#CCCCCC;stop-opacity:0.8"/>
					<stop  offset="1" style="stop-color:#999999;stop-opacity:0.4"/>
				</linearGradient>
				<circle class="st10" cx="91.4" cy="28.2" r="5.2"/>
			</g>
			<g>
				
					<linearGradient id="SVGID_11_" gradientUnits="userSpaceOnUse" x1="46.1095" y1="0.1405" x2="57.8195" y2="11.9905" gradientTransform="matrix(1 0 0 -1 0 102)">
					<stop  offset="0" style="stop-color:#CCCCCC;stop-opacity:0.8"/>
					<stop  offset="1" style="stop-color:#999999;stop-opacity:0.4"/>
				</linearGradient>
				<circle class="st11" cx="52.7" cy="95.2" r="5.2"/>
			</g>
			<g>
				
					<linearGradient id="SVGID_12_" gradientUnits="userSpaceOnUse" x1="7.4123" y1="22.0978" x2="19.1223" y2="33.9578" gradientTransform="matrix(1 0 0 -1 0 102)">
					<stop  offset="0" style="stop-color:#CCCCCC;stop-opacity:0.8"/>
					<stop  offset="1" style="stop-color:#999999;stop-opacity:0.4"/>
				</linearGradient>
				<circle class="st12" cx="14" cy="73.2" r="5.2"/>
			</g>
			<g>
				
					<linearGradient id="SVGID_13_" gradientUnits="userSpaceOnUse" x1="84.8123" y1="22.0978" x2="96.5223" y2="33.9578" gradientTransform="matrix(1 0 0 -1 0 102)">
					<stop  offset="0" style="stop-color:#CCCCCC;stop-opacity:0.8"/>
					<stop  offset="1" style="stop-color:#999999;stop-opacity:0.4"/>
				</linearGradient>
				<circle class="st13" cx="91.4" cy="73.2" r="5.2"/>
			</g>
			<g>
				
					<linearGradient id="SVGID_14_" gradientUnits="userSpaceOnUse" x1="72.0647" y1="73.34" x2="72.0647" y2="97.1678" gradientTransform="matrix(1 0 0 -1 0 102)">
					<stop  offset="0" style="stop-color:#CCCCCC;stop-opacity:0.8"/>
					<stop  offset="1" style="stop-color:#999999;stop-opacity:0.4"/>
				</linearGradient>
				<path class="st14" d="M91.4,28.7c-0.1,0-0.2,0-0.2-0.1l-38.7-23c-0.2-0.1-0.2-0.4-0.1-0.6c0.1-0.2,0.4-0.2,0.5-0.1l38.7,23
					c0.2,0.1,0.3,0.4,0.1,0.6C91.7,28.6,91.6,28.7,91.4,28.7z"/>
			</g>
			<g>
				
					<linearGradient id="SVGID_15_" gradientUnits="userSpaceOnUse" x1="33.3608" y1="74.18" x2="33.3608" y2="51.37" gradientTransform="matrix(1 0 0 -1 0 102)">
					<stop  offset="0" style="stop-color:#CCCCCC;stop-opacity:0.8"/>
					<stop  offset="1" style="stop-color:#999999;stop-opacity:0.4"/>
				</linearGradient>
				<path class="st15" d="M52.7,50.6c-0.1,0-0.1,0-0.2-0.1l-38.7-22c-0.2-0.1-0.3-0.4-0.2-0.6c0.1-0.2,0.4-0.3,0.6-0.2c0,0,0,0,0,0
					l38.7,22c0.2,0.1,0.3,0.4,0.2,0.6C53,50.5,52.9,50.6,52.7,50.6z"/>
			</g>
			<g>
				
					<linearGradient id="SVGID_16_" gradientUnits="userSpaceOnUse" x1="72.0569" y1="6.3995" x2="72.0569" y2="29.1995" gradientTransform="matrix(1 0 0 -1 0 102)">
					<stop  offset="0" style="stop-color:#CCCCCC;stop-opacity:0.8"/>
					<stop  offset="1" style="stop-color:#999999;stop-opacity:0.4"/>
				</linearGradient>
				<path class="st16" d="M52.7,95.6c-0.2,0-0.3-0.1-0.4-0.2c-0.1-0.2,0-0.5,0.2-0.6l38.7-22c0.2-0.1,0.5,0,0.6,0.2
					c0.1,0.2,0.1,0.4-0.1,0.6c0,0,0,0,0,0l-38.7,22C52.8,95.6,52.8,95.6,52.7,95.6z"/>
			</g>
			<g>
				
					<linearGradient id="SVGID_17_" gradientUnits="userSpaceOnUse" x1="33.3463" y1="52.2027" x2="33.3463" y2="28.36" gradientTransform="matrix(1 0 0 -1 0 102)">
					<stop  offset="0" style="stop-color:#CCCCCC;stop-opacity:0.8"/>
					<stop  offset="1" style="stop-color:#999999;stop-opacity:0.4"/>
				</linearGradient>
				<path class="st17" d="M14,73.6c-0.2,0-0.4-0.2-0.4-0.4c0-0.1,0.1-0.3,0.2-0.4l38.7-23c0.2-0.1,0.5-0.1,0.6,0.1c0,0,0,0,0,0
					c0.1,0.2,0,0.5-0.2,0.6l-38.7,23C14.1,73.6,14.1,73.6,14,73.6z"/>
			</g>
			<g>
				
					<linearGradient id="SVGID_18_" gradientUnits="userSpaceOnUse" x1="72.0584" y1="52.202" x2="72.0584" y2="28.36" gradientTransform="matrix(1 0 0 -1 0 102)">
					<stop  offset="0" style="stop-color:#CCCCCC;stop-opacity:0.8"/>
					<stop  offset="1" style="stop-color:#999999;stop-opacity:0.4"/>
				</linearGradient>
				<path class="st18" d="M91.4,73.6c-0.1,0-0.2,0-0.2-0.1l-38.7-23c-0.2-0.1-0.3-0.4-0.1-0.6c0,0,0,0,0,0c0.1-0.2,0.4-0.3,0.6-0.1
					c0,0,0,0,0,0l38.7,23c0.2,0.1,0.3,0.4,0.2,0.6c0,0,0,0,0,0C91.7,73.6,91.6,73.6,91.4,73.6z"/>
			</g>
			<g>
				
					<linearGradient id="SVGID_19_" gradientUnits="userSpaceOnUse" x1="33.3393" y1="29.2017" x2="33.3393" y2="6.3863" gradientTransform="matrix(1 0 0 -1 0 102)">
					<stop  offset="0" style="stop-color:#CCCCCC;stop-opacity:0.8"/>
					<stop  offset="1" style="stop-color:#999999;stop-opacity:0.4"/>
				</linearGradient>
				<path class="st19" d="M52.7,95.6c-0.1,0-0.1,0-0.2,0l-38.7-22c-0.2-0.1-0.3-0.3-0.2-0.6c0.1-0.2,0.3-0.3,0.6-0.2c0,0,0,0,0.1,0
					l38.7,22c0.2,0.1,0.3,0.4,0.2,0.6C53,95.6,52.8,95.6,52.7,95.6z"/>
			</g>
			<g>
				
					<linearGradient id="SVGID_20_" gradientUnits="userSpaceOnUse" x1="72.0665" y1="74.18" x2="72.0665" y2="51.37" gradientTransform="matrix(1 0 0 -1 0 102)">
					<stop  offset="0" style="stop-color:#CCCCCC;stop-opacity:0.8"/>
					<stop  offset="1" style="stop-color:#999999;stop-opacity:0.4"/>
				</linearGradient>
				<path class="st20" d="M52.7,50.6c-0.2,0-0.4-0.2-0.4-0.4c0-0.2,0.1-0.3,0.2-0.4l38.7-22c0.2-0.1,0.5-0.1,0.6,0.1
					c0.1,0.2,0.1,0.5-0.1,0.6c0,0,0,0-0.1,0l-38.7,22C52.9,50.6,52.8,50.6,52.7,50.6z"/>
			</g>
			<g>
				
					<linearGradient id="SVGID_21_" gradientUnits="userSpaceOnUse" x1="33.3565" y1="97.1923" x2="33.3565" y2="73.3398" gradientTransform="matrix(1 0 0 -1 0 102)">
					<stop  offset="0" style="stop-color:#CCCCCC;stop-opacity:0.8"/>
					<stop  offset="1" style="stop-color:#999999;stop-opacity:0.4"/>
				</linearGradient>
				<path class="st21" d="M14,28.7c-0.1,0-0.3-0.1-0.4-0.2c-0.1-0.2-0.1-0.5,0.1-0.6c0,0,0,0,0,0l38.7-23c0.2-0.1,0.5-0.1,0.6,0.1
					c0.1,0.2,0.1,0.5-0.1,0.6c0,0,0,0,0,0l-38.7,23C14.1,28.6,14.1,28.7,14,28.7z"/>
			</g>
			<g>
				
					<linearGradient id="SVGID_22_" gradientUnits="userSpaceOnUse" x1="1171.855" y1="-2684.1599" x2="1171.855" y2="-2638.3501" gradientTransform="matrix(-1 0 0 1 1185.85 2711.99)">
					<stop  offset="0" style="stop-color:#CCCCCC;stop-opacity:0.8"/>
					<stop  offset="1" style="stop-color:#999999;stop-opacity:0.4"/>
				</linearGradient>
				<path class="st22" d="M14,73.6c-0.2,0-0.4-0.2-0.4-0.4v-45c0-0.2,0.1-0.4,0.4-0.5c0.2,0,0.4,0.1,0.5,0.4c0,0,0,0.1,0,0.1v45
					C14.4,73.4,14.2,73.6,14,73.6C14,73.6,14,73.6,14,73.6z"/>
			</g>
			<g>
				
					<linearGradient id="SVGID_23_" gradientUnits="userSpaceOnUse" x1="91.41" y1="28.36" x2="91.41" y2="74.2012" gradientTransform="matrix(1 0 0 -1 0 102)">
					<stop  offset="0" style="stop-color:#CCCCCC;stop-opacity:0.8"/>
					<stop  offset="1" style="stop-color:#999999;stop-opacity:0.4"/>
				</linearGradient>
				<path class="st23" d="M91.4,73.6c-0.2,0-0.4-0.2-0.4-0.4v-45c0-0.2,0.2-0.4,0.4-0.4s0.4,0.2,0.4,0.4c0,0,0,0,0,0v45
					C91.8,73.5,91.6,73.6,91.4,73.6z"/>
			</g>
			<g>
				
					<linearGradient id="SVGID_24_" gradientUnits="userSpaceOnUse" x1="52.7051" y1="6.4" x2="52.7051" y2="52.24" gradientTransform="matrix(1 0 0 -1 0 102)">
					<stop  offset="0" style="stop-color:#CCCCCC;stop-opacity:0.8"/>
					<stop  offset="1" style="stop-color:#999999;stop-opacity:0.4"/>
				</linearGradient>
				<path class="st24" d="M52.7,95.6c-0.2,0-0.4-0.2-0.4-0.4v-45c0-0.2,0.2-0.4,0.4-0.4c0.2,0,0.4,0.2,0.4,0.4c0,0,0,0,0,0v45
					C53.1,95.4,52.9,95.6,52.7,95.6C52.7,95.6,52.7,95.6,52.7,95.6z"/>
			</g>
			<g>
				
					<linearGradient id="SVGID_25_" gradientUnits="userSpaceOnUse" x1="1207.145" y1="-2703.3601" x2="1207.145" y2="-2749.2" gradientTransform="matrix(-1 0 0 1 1259.8501 2753.99)">
					<stop  offset="0" style="stop-color:#CCCCCC;stop-opacity:0.8"/>
					<stop  offset="1" style="stop-color:#999999;stop-opacity:0.4"/>
				</linearGradient>
				<path class="st25" d="M52.7,50.6c-0.2,0-0.4-0.2-0.4-0.4v-45c0-0.2,0.2-0.4,0.4-0.4c0.2,0,0.4,0.2,0.4,0.4c0,0,0,0,0,0v45
					C53.1,50.4,52.9,50.6,52.7,50.6C52.7,50.6,52.7,50.6,52.7,50.6z"/>
			</g>
			<g>
				
					<linearGradient id="SVGID_26_" gradientUnits="userSpaceOnUse" x1="29.6344" y1="31.0651" x2="106.7944" y2="100.3651" gradientTransform="matrix(1 0 0 -1 0 102)">
					<stop  offset="0" style="stop-color:#808080"/>
					<stop  offset="1" style="stop-color:#808080"/>
				</linearGradient>
				<circle class="st26" cx="52.7" cy="50.2" r="29.3"/>
			</g>
			<g>
				
					<linearGradient id="SVGID_27_" gradientUnits="userSpaceOnUse" x1="46.1123" y1="90.0878" x2="57.8223" y2="101.9478" gradientTransform="matrix(1 0 0 -1 0 102)">
					<stop  offset="0" style="stop-color:#CCCCCC;stop-opacity:0.8"/>
					<stop  offset="1" style="stop-color:#999999;stop-opacity:0.4"/>
				</linearGradient>
				<circle class="st27" cx="52.7" cy="5.2" r="5.2"/>
			</g>
			<g>
				
					<linearGradient id="SVGID_28_" gradientUnits="userSpaceOnUse" x1="7.4123" y1="67.0778" x2="19.1223" y2="78.9378" gradientTransform="matrix(1 0 0 -1 0 102)">
					<stop  offset="0" style="stop-color:#CCCCCC;stop-opacity:0.8"/>
					<stop  offset="1" style="stop-color:#999999;stop-opacity:0.4"/>
				</linearGradient>
				<circle class="st28" cx="14" cy="28.2" r="5.2"/>
			</g>
			<g>
				
					<linearGradient id="SVGID_29_" gradientUnits="userSpaceOnUse" x1="84.8123" y1="67.0778" x2="96.5223" y2="78.9378" gradientTransform="matrix(1 0 0 -1 0 102)">
					<stop  offset="0" style="stop-color:#CCCCCC;stop-opacity:0.8"/>
					<stop  offset="1" style="stop-color:#999999;stop-opacity:0.4"/>
				</linearGradient>
				<circle class="st29" cx="91.4" cy="28.2" r="5.2"/>
			</g>
			<g>
				
					<linearGradient id="SVGID_30_" gradientUnits="userSpaceOnUse" x1="46.1095" y1="0.1405" x2="57.8195" y2="11.9905" gradientTransform="matrix(1 0 0 -1 0 102)">
					<stop  offset="0" style="stop-color:#CCCCCC;stop-opacity:0.8"/>
					<stop  offset="1" style="stop-color:#999999;stop-opacity:0.4"/>
				</linearGradient>
				<circle class="st30" cx="52.7" cy="95.2" r="5.2"/>
			</g>
			<g>
				
					<linearGradient id="SVGID_31_" gradientUnits="userSpaceOnUse" x1="7.4123" y1="22.0978" x2="19.1223" y2="33.9578" gradientTransform="matrix(1 0 0 -1 0 102)">
					<stop  offset="0" style="stop-color:#CCCCCC;stop-opacity:0.8"/>
					<stop  offset="1" style="stop-color:#999999;stop-opacity:0.4"/>
				</linearGradient>
				<circle class="st31" cx="14" cy="73.2" r="5.2"/>
			</g>
			<g>
				
					<linearGradient id="SVGID_32_" gradientUnits="userSpaceOnUse" x1="84.8123" y1="22.0978" x2="96.5223" y2="33.9578" gradientTransform="matrix(1 0 0 -1 0 102)">
					<stop  offset="0" style="stop-color:#CCCCCC;stop-opacity:0.8"/>
					<stop  offset="1" style="stop-color:#999999;stop-opacity:0.4"/>
				</linearGradient>
				<circle class="st32" cx="91.4" cy="73.2" r="5.2"/>
			</g>
			<g>
				
					<linearGradient id="SVGID_33_" gradientUnits="userSpaceOnUse" x1="72.0647" y1="73.34" x2="72.0647" y2="97.1678" gradientTransform="matrix(1 0 0 -1 0 102)">
					<stop  offset="0" style="stop-color:#CCCCCC;stop-opacity:0.8"/>
					<stop  offset="1" style="stop-color:#999999;stop-opacity:0.4"/>
				</linearGradient>
				<path class="st33" d="M91.4,28.7c-0.1,0-0.2,0-0.2-0.1l-38.7-23c-0.2-0.1-0.2-0.4-0.1-0.6c0.1-0.2,0.4-0.2,0.5-0.1l38.7,23
					c0.2,0.1,0.3,0.4,0.1,0.6C91.7,28.6,91.6,28.7,91.4,28.7z"/>
			</g>
			<g>
				
					<linearGradient id="SVGID_34_" gradientUnits="userSpaceOnUse" x1="33.3608" y1="74.18" x2="33.3608" y2="51.37" gradientTransform="matrix(1 0 0 -1 0 102)">
					<stop  offset="0" style="stop-color:#CCCCCC;stop-opacity:0.8"/>
					<stop  offset="1" style="stop-color:#999999;stop-opacity:0.4"/>
				</linearGradient>
				<path class="st34" d="M52.7,50.6c-0.1,0-0.1,0-0.2-0.1l-38.7-22c-0.2-0.1-0.3-0.4-0.2-0.6c0.1-0.2,0.4-0.3,0.6-0.2c0,0,0,0,0,0
					l38.7,22c0.2,0.1,0.3,0.4,0.2,0.6C53,50.5,52.9,50.6,52.7,50.6z"/>
			</g>
			<g>
				
					<linearGradient id="SVGID_35_" gradientUnits="userSpaceOnUse" x1="72.0569" y1="6.3995" x2="72.0569" y2="29.1995" gradientTransform="matrix(1 0 0 -1 0 102)">
					<stop  offset="0" style="stop-color:#CCCCCC;stop-opacity:0.8"/>
					<stop  offset="1" style="stop-color:#999999;stop-opacity:0.4"/>
				</linearGradient>
				<path class="st35" d="M52.7,95.6c-0.2,0-0.3-0.1-0.4-0.2c-0.1-0.2,0-0.5,0.2-0.6l38.7-22c0.2-0.1,0.5,0,0.6,0.2
					c0.1,0.2,0.1,0.4-0.1,0.6c0,0,0,0,0,0l-38.7,22C52.8,95.6,52.8,95.6,52.7,95.6z"/>
			</g>
			<g>
				
					<linearGradient id="SVGID_36_" gradientUnits="userSpaceOnUse" x1="33.3463" y1="52.2027" x2="33.3463" y2="28.36" gradientTransform="matrix(1 0 0 -1 0 102)">
					<stop  offset="0" style="stop-color:#CCCCCC;stop-opacity:0.8"/>
					<stop  offset="1" style="stop-color:#999999;stop-opacity:0.4"/>
				</linearGradient>
				<path class="st36" d="M14,73.6c-0.2,0-0.4-0.2-0.4-0.4c0-0.1,0.1-0.3,0.2-0.4l38.7-23c0.2-0.1,0.5-0.1,0.6,0.1c0,0,0,0,0,0
					c0.1,0.2,0,0.5-0.2,0.6l-38.7,23C14.1,73.6,14.1,73.6,14,73.6z"/>
			</g>
			<g>
				
					<linearGradient id="SVGID_37_" gradientUnits="userSpaceOnUse" x1="72.0584" y1="52.202" x2="72.0584" y2="28.36" gradientTransform="matrix(1 0 0 -1 0 102)">
					<stop  offset="0" style="stop-color:#CCCCCC;stop-opacity:0.8"/>
					<stop  offset="1" style="stop-color:#999999;stop-opacity:0.4"/>
				</linearGradient>
				<path class="st37" d="M91.4,73.6c-0.1,0-0.2,0-0.2-0.1l-38.7-23c-0.2-0.1-0.3-0.4-0.1-0.6c0,0,0,0,0,0c0.1-0.2,0.4-0.3,0.6-0.1
					c0,0,0,0,0,0l38.7,23c0.2,0.1,0.3,0.4,0.2,0.6c0,0,0,0,0,0C91.7,73.6,91.6,73.6,91.4,73.6z"/>
			</g>
			<g>
				
					<linearGradient id="SVGID_38_" gradientUnits="userSpaceOnUse" x1="33.3393" y1="29.2017" x2="33.3393" y2="6.3863" gradientTransform="matrix(1 0 0 -1 0 102)">
					<stop  offset="0" style="stop-color:#CCCCCC;stop-opacity:0.8"/>
					<stop  offset="1" style="stop-color:#999999;stop-opacity:0.4"/>
				</linearGradient>
				<path class="st38" d="M52.7,95.6c-0.1,0-0.1,0-0.2,0l-38.7-22c-0.2-0.1-0.3-0.3-0.2-0.6c0.1-0.2,0.3-0.3,0.6-0.2c0,0,0,0,0.1,0
					l38.7,22c0.2,0.1,0.3,0.4,0.2,0.6C53,95.6,52.8,95.6,52.7,95.6z"/>
			</g>
			<g>
				
					<linearGradient id="SVGID_39_" gradientUnits="userSpaceOnUse" x1="72.0665" y1="74.18" x2="72.0665" y2="51.37" gradientTransform="matrix(1 0 0 -1 0 102)">
					<stop  offset="0" style="stop-color:#CCCCCC;stop-opacity:0.8"/>
					<stop  offset="1" style="stop-color:#999999;stop-opacity:0.4"/>
				</linearGradient>
				<path class="st39" d="M52.7,50.6c-0.2,0-0.4-0.2-0.4-0.4c0-0.2,0.1-0.3,0.2-0.4l38.7-22c0.2-0.1,0.5-0.1,0.6,0.1
					c0.1,0.2,0.1,0.5-0.1,0.6c0,0,0,0-0.1,0l-38.7,22C52.9,50.6,52.8,50.6,52.7,50.6z"/>
			</g>
			<g>
				
					<linearGradient id="SVGID_40_" gradientUnits="userSpaceOnUse" x1="33.3565" y1="97.1923" x2="33.3565" y2="73.3398" gradientTransform="matrix(1 0 0 -1 0 102)">
					<stop  offset="0" style="stop-color:#CCCCCC;stop-opacity:0.8"/>
					<stop  offset="1" style="stop-color:#999999;stop-opacity:0.4"/>
				</linearGradient>
				<path class="st40" d="M14,28.7c-0.1,0-0.3-0.1-0.4-0.2c-0.1-0.2-0.1-0.5,0.1-0.6c0,0,0,0,0,0l38.7-23c0.2-0.1,0.5-0.1,0.6,0.1
					c0.1,0.2,0.1,0.5-0.1,0.6c0,0,0,0,0,0l-38.7,23C14.1,28.6,14.1,28.7,14,28.7z"/>
			</g>
			<g>
				
					<linearGradient id="SVGID_41_" gradientUnits="userSpaceOnUse" x1="1171.855" y1="-2684.1599" x2="1171.855" y2="-2638.3501" gradientTransform="matrix(-1 0 0 1 1185.85 2711.99)">
					<stop  offset="0" style="stop-color:#CCCCCC;stop-opacity:0.8"/>
					<stop  offset="1" style="stop-color:#999999;stop-opacity:0.4"/>
				</linearGradient>
				<path class="st41" d="M14,73.6c-0.2,0-0.4-0.2-0.4-0.4v-45c0-0.2,0.1-0.4,0.4-0.5c0.2,0,0.4,0.1,0.5,0.4c0,0,0,0.1,0,0.1v45
					C14.4,73.4,14.2,73.6,14,73.6C14,73.6,14,73.6,14,73.6z"/>
			</g>
			<g>
				
					<linearGradient id="SVGID_42_" gradientUnits="userSpaceOnUse" x1="91.41" y1="28.36" x2="91.41" y2="74.2012" gradientTransform="matrix(1 0 0 -1 0 102)">
					<stop  offset="0" style="stop-color:#CCCCCC;stop-opacity:0.8"/>
					<stop  offset="1" style="stop-color:#999999;stop-opacity:0.4"/>
				</linearGradient>
				<path class="st42" d="M91.4,73.6c-0.2,0-0.4-0.2-0.4-0.4v-45c0-0.2,0.2-0.4,0.4-0.4s0.4,0.2,0.4,0.4c0,0,0,0,0,0v45
					C91.8,73.5,91.6,73.6,91.4,73.6z"/>
			</g>
			<g>
				
					<linearGradient id="SVGID_43_" gradientUnits="userSpaceOnUse" x1="52.7051" y1="6.4" x2="52.7051" y2="52.24" gradientTransform="matrix(1 0 0 -1 0 102)">
					<stop  offset="0" style="stop-color:#CCCCCC;stop-opacity:0.8"/>
					<stop  offset="1" style="stop-color:#999999;stop-opacity:0.4"/>
				</linearGradient>
				<path class="st43" d="M52.7,95.6c-0.2,0-0.4-0.2-0.4-0.4v-45c0-0.2,0.2-0.4,0.4-0.4c0.2,0,0.4,0.2,0.4,0.4c0,0,0,0,0,0v45
					C53.1,95.4,52.9,95.6,52.7,95.6C52.7,95.6,52.7,95.6,52.7,95.6z"/>
			</g>
			<g>
				
					<linearGradient id="SVGID_44_" gradientUnits="userSpaceOnUse" x1="1207.145" y1="-2703.3601" x2="1207.145" y2="-2749.2" gradientTransform="matrix(-1 0 0 1 1259.8501 2753.99)">
					<stop  offset="0" style="stop-color:#CCCCCC;stop-opacity:0.8"/>
					<stop  offset="1" style="stop-color:#999999;stop-opacity:0.4"/>
				</linearGradient>
				<path class="st44" d="M52.7,50.6c-0.2,0-0.4-0.2-0.4-0.4v-45c0-0.2,0.2-0.4,0.4-0.4c0.2,0,0.4,0.2,0.4,0.4c0,0,0,0,0,0v45
					C53.1,50.4,52.9,50.6,52.7,50.6C52.7,50.6,52.7,50.6,52.7,50.6z"/>
			</g>
			<g>
				
					<linearGradient id="SVGID_45_" gradientUnits="userSpaceOnUse" x1="46.1123" y1="90.0878" x2="57.8223" y2="101.9478" gradientTransform="matrix(1 0 0 -1 0 102)">
					<stop  offset="0" style="stop-color:#CCCCCC;stop-opacity:0.8"/>
					<stop  offset="1" style="stop-color:#999999;stop-opacity:0.4"/>
				</linearGradient>
				<circle class="st45" cx="52.7" cy="5.2" r="5.2"/>
			</g>
			<g>
				
					<linearGradient id="SVGID_46_" gradientUnits="userSpaceOnUse" x1="7.4123" y1="67.0778" x2="19.1223" y2="78.9378" gradientTransform="matrix(1 0 0 -1 0 102)">
					<stop  offset="0" style="stop-color:#CCCCCC;stop-opacity:0.8"/>
					<stop  offset="1" style="stop-color:#999999;stop-opacity:0.4"/>
				</linearGradient>
				<circle class="st46" cx="14" cy="28.2" r="5.2"/>
			</g>
			<g>
				
					<linearGradient id="SVGID_47_" gradientUnits="userSpaceOnUse" x1="84.8123" y1="67.0778" x2="96.5223" y2="78.9378" gradientTransform="matrix(1 0 0 -1 0 102)">
					<stop  offset="0" style="stop-color:#CCCCCC;stop-opacity:0.8"/>
					<stop  offset="1" style="stop-color:#999999;stop-opacity:0.4"/>
				</linearGradient>
				<circle class="st47" cx="91.4" cy="28.2" r="5.2"/>
			</g>
			<g>
				
					<linearGradient id="SVGID_48_" gradientUnits="userSpaceOnUse" x1="46.1095" y1="0.1405" x2="57.8195" y2="11.9905" gradientTransform="matrix(1 0 0 -1 0 102)">
					<stop  offset="0" style="stop-color:#CCCCCC;stop-opacity:0.8"/>
					<stop  offset="1" style="stop-color:#999999;stop-opacity:0.4"/>
				</linearGradient>
				<circle class="st48" cx="52.7" cy="95.2" r="5.2"/>
			</g>
			<g>
				
					<linearGradient id="SVGID_49_" gradientUnits="userSpaceOnUse" x1="7.4123" y1="22.0978" x2="19.1223" y2="33.9578" gradientTransform="matrix(1 0 0 -1 0 102)">
					<stop  offset="0" style="stop-color:#CCCCCC;stop-opacity:0.8"/>
					<stop  offset="1" style="stop-color:#999999;stop-opacity:0.4"/>
				</linearGradient>
				<circle class="st49" cx="14" cy="73.2" r="5.2"/>
			</g>
			<g>
				
					<linearGradient id="SVGID_50_" gradientUnits="userSpaceOnUse" x1="84.8123" y1="22.0978" x2="96.5223" y2="33.9578" gradientTransform="matrix(1 0 0 -1 0 102)">
					<stop  offset="0" style="stop-color:#CCCCCC;stop-opacity:0.8"/>
					<stop  offset="1" style="stop-color:#999999;stop-opacity:0.4"/>
				</linearGradient>
				<circle class="st50" cx="91.4" cy="73.2" r="5.2"/>
			</g>
			<g>
				
					<linearGradient id="SVGID_51_" gradientUnits="userSpaceOnUse" x1="72.0647" y1="73.34" x2="72.0647" y2="97.1678" gradientTransform="matrix(1 0 0 -1 0 102)">
					<stop  offset="0" style="stop-color:#CCCCCC;stop-opacity:0.8"/>
					<stop  offset="1" style="stop-color:#999999;stop-opacity:0.4"/>
				</linearGradient>
				<path class="st51" d="M91.4,28.7c-0.1,0-0.2,0-0.2-0.1l-38.7-23c-0.2-0.1-0.2-0.4-0.1-0.6c0.1-0.2,0.4-0.2,0.5-0.1l38.7,23
					c0.2,0.1,0.3,0.4,0.1,0.6C91.7,28.6,91.6,28.7,91.4,28.7z"/>
			</g>
			<g>
				
					<linearGradient id="SVGID_52_" gradientUnits="userSpaceOnUse" x1="33.3608" y1="74.18" x2="33.3608" y2="51.37" gradientTransform="matrix(1 0 0 -1 0 102)">
					<stop  offset="0" style="stop-color:#CCCCCC;stop-opacity:0.8"/>
					<stop  offset="1" style="stop-color:#999999;stop-opacity:0.4"/>
				</linearGradient>
				<path class="st52" d="M52.7,50.6c-0.1,0-0.1,0-0.2-0.1l-38.7-22c-0.2-0.1-0.3-0.4-0.2-0.6c0.1-0.2,0.4-0.3,0.6-0.2c0,0,0,0,0,0
					l38.7,22c0.2,0.1,0.3,0.4,0.2,0.6C53,50.5,52.9,50.6,52.7,50.6z"/>
			</g>
			<g>
				
					<linearGradient id="SVGID_53_" gradientUnits="userSpaceOnUse" x1="72.0569" y1="6.3995" x2="72.0569" y2="29.1995" gradientTransform="matrix(1 0 0 -1 0 102)">
					<stop  offset="0" style="stop-color:#CCCCCC;stop-opacity:0.8"/>
					<stop  offset="1" style="stop-color:#999999;stop-opacity:0.4"/>
				</linearGradient>
				<path class="st53" d="M52.7,95.6c-0.2,0-0.3-0.1-0.4-0.2c-0.1-0.2,0-0.5,0.2-0.6l38.7-22c0.2-0.1,0.5,0,0.6,0.2
					c0.1,0.2,0.1,0.4-0.1,0.6c0,0,0,0,0,0l-38.7,22C52.8,95.6,52.8,95.6,52.7,95.6z"/>
			</g>
			<g>
				
					<linearGradient id="SVGID_54_" gradientUnits="userSpaceOnUse" x1="33.3463" y1="52.2027" x2="33.3463" y2="28.36" gradientTransform="matrix(1 0 0 -1 0 102)">
					<stop  offset="0" style="stop-color:#CCCCCC;stop-opacity:0.8"/>
					<stop  offset="1" style="stop-color:#999999;stop-opacity:0.4"/>
				</linearGradient>
				<path class="st54" d="M14,73.6c-0.2,0-0.4-0.2-0.4-0.4c0-0.1,0.1-0.3,0.2-0.4l38.7-23c0.2-0.1,0.5-0.1,0.6,0.1c0,0,0,0,0,0
					c0.1,0.2,0,0.5-0.2,0.6l-38.7,23C14.1,73.6,14.1,73.6,14,73.6z"/>
			</g>
			<g>
				
					<linearGradient id="SVGID_55_" gradientUnits="userSpaceOnUse" x1="72.0584" y1="52.202" x2="72.0584" y2="28.36" gradientTransform="matrix(1 0 0 -1 0 102)">
					<stop  offset="0" style="stop-color:#CCCCCC;stop-opacity:0.8"/>
					<stop  offset="1" style="stop-color:#999999;stop-opacity:0.4"/>
				</linearGradient>
				<path class="st55" d="M91.4,73.6c-0.1,0-0.2,0-0.2-0.1l-38.7-23c-0.2-0.1-0.3-0.4-0.1-0.6c0,0,0,0,0,0c0.1-0.2,0.4-0.3,0.6-0.1
					c0,0,0,0,0,0l38.7,23c0.2,0.1,0.3,0.4,0.2,0.6c0,0,0,0,0,0C91.7,73.6,91.6,73.6,91.4,73.6z"/>
			</g>
			<g>
				
					<linearGradient id="SVGID_56_" gradientUnits="userSpaceOnUse" x1="33.3393" y1="29.2017" x2="33.3393" y2="6.3863" gradientTransform="matrix(1 0 0 -1 0 102)">
					<stop  offset="0" style="stop-color:#CCCCCC;stop-opacity:0.8"/>
					<stop  offset="1" style="stop-color:#999999;stop-opacity:0.4"/>
				</linearGradient>
				<path class="st56" d="M52.7,95.6c-0.1,0-0.1,0-0.2,0l-38.7-22c-0.2-0.1-0.3-0.3-0.2-0.6c0.1-0.2,0.3-0.3,0.6-0.2c0,0,0,0,0.1,0
					l38.7,22c0.2,0.1,0.3,0.4,0.2,0.6C53,95.6,52.8,95.6,52.7,95.6z"/>
			</g>
			<g>
				
					<linearGradient id="SVGID_57_" gradientUnits="userSpaceOnUse" x1="72.0665" y1="74.18" x2="72.0665" y2="51.37" gradientTransform="matrix(1 0 0 -1 0 102)">
					<stop  offset="0" style="stop-color:#CCCCCC;stop-opacity:0.8"/>
					<stop  offset="1" style="stop-color:#999999;stop-opacity:0.4"/>
				</linearGradient>
				<path class="st57" d="M52.7,50.6c-0.2,0-0.4-0.2-0.4-0.4c0-0.2,0.1-0.3,0.2-0.4l38.7-22c0.2-0.1,0.5-0.1,0.6,0.1
					c0.1,0.2,0.1,0.5-0.1,0.6c0,0,0,0-0.1,0l-38.7,22C52.9,50.6,52.8,50.6,52.7,50.6z"/>
			</g>
			<g>
				
					<linearGradient id="SVGID_58_" gradientUnits="userSpaceOnUse" x1="33.3565" y1="97.1923" x2="33.3565" y2="73.3398" gradientTransform="matrix(1 0 0 -1 0 102)">
					<stop  offset="0" style="stop-color:#CCCCCC;stop-opacity:0.8"/>
					<stop  offset="1" style="stop-color:#999999;stop-opacity:0.4"/>
				</linearGradient>
				<path class="st58" d="M14,28.7c-0.1,0-0.3-0.1-0.4-0.2c-0.1-0.2-0.1-0.5,0.1-0.6c0,0,0,0,0,0l38.7-23c0.2-0.1,0.5-0.1,0.6,0.1
					c0.1,0.2,0.1,0.5-0.1,0.6c0,0,0,0,0,0l-38.7,23C14.1,28.6,14.1,28.7,14,28.7z"/>
			</g>
			<g>
				
					<linearGradient id="SVGID_59_" gradientUnits="userSpaceOnUse" x1="1171.855" y1="-2684.1599" x2="1171.855" y2="-2638.3501" gradientTransform="matrix(-1 0 0 1 1185.85 2711.99)">
					<stop  offset="0" style="stop-color:#CCCCCC;stop-opacity:0.8"/>
					<stop  offset="1" style="stop-color:#999999;stop-opacity:0.4"/>
				</linearGradient>
				<path class="st59" d="M14,73.6c-0.2,0-0.4-0.2-0.4-0.4v-45c0-0.2,0.1-0.4,0.4-0.5c0.2,0,0.4,0.1,0.5,0.4c0,0,0,0.1,0,0.1v45
					C14.4,73.4,14.2,73.6,14,73.6C14,73.6,14,73.6,14,73.6z"/>
			</g>
			<g>
				
					<linearGradient id="SVGID_60_" gradientUnits="userSpaceOnUse" x1="91.41" y1="28.36" x2="91.41" y2="74.2012" gradientTransform="matrix(1 0 0 -1 0 102)">
					<stop  offset="0" style="stop-color:#CCCCCC;stop-opacity:0.8"/>
					<stop  offset="1" style="stop-color:#999999;stop-opacity:0.4"/>
				</linearGradient>
				<path class="st60" d="M91.4,73.6c-0.2,0-0.4-0.2-0.4-0.4v-45c0-0.2,0.2-0.4,0.4-0.4s0.4,0.2,0.4,0.4c0,0,0,0,0,0v45
					C91.8,73.5,91.6,73.6,91.4,73.6z"/>
			</g>
			<g>
				
					<linearGradient id="SVGID_61_" gradientUnits="userSpaceOnUse" x1="52.7051" y1="6.4" x2="52.7051" y2="52.24" gradientTransform="matrix(1 0 0 -1 0 102)">
					<stop  offset="0" style="stop-color:#CCCCCC;stop-opacity:0.8"/>
					<stop  offset="1" style="stop-color:#999999;stop-opacity:0.4"/>
				</linearGradient>
				<path class="st61" d="M52.7,95.6c-0.2,0-0.4-0.2-0.4-0.4v-45c0-0.2,0.2-0.4,0.4-0.4c0.2,0,0.4,0.2,0.4,0.4c0,0,0,0,0,0v45
					C53.1,95.4,52.9,95.6,52.7,95.6C52.7,95.6,52.7,95.6,52.7,95.6z"/>
			</g>
			<g>
				
					<linearGradient id="SVGID_62_" gradientUnits="userSpaceOnUse" x1="1207.145" y1="-2703.3601" x2="1207.145" y2="-2749.2" gradientTransform="matrix(-1 0 0 1 1259.8501 2753.99)">
					<stop  offset="0" style="stop-color:#CCCCCC;stop-opacity:0.8"/>
					<stop  offset="1" style="stop-color:#999999;stop-opacity:0.4"/>
				</linearGradient>
				<path class="st62" d="M52.7,50.6c-0.2,0-0.4-0.2-0.4-0.4v-45c0-0.2,0.2-0.4,0.4-0.4c0.2,0,0.4,0.2,0.4,0.4c0,0,0,0,0,0v45
					C53.1,50.4,52.9,50.6,52.7,50.6C52.7,50.6,52.7,50.6,52.7,50.6z"/>
			</g>
			<g>
				
					<linearGradient id="SVGID_63_" gradientUnits="userSpaceOnUse" x1="46.1123" y1="90.0878" x2="57.8223" y2="101.9478" gradientTransform="matrix(1 0 0 -1 0 102)">
					<stop  offset="0" style="stop-color:#CCCCCC;stop-opacity:0.8"/>
					<stop  offset="1" style="stop-color:#999999;stop-opacity:0.4"/>
				</linearGradient>
				<circle class="st63" cx="52.7" cy="5.2" r="5.2"/>
			</g>
			<g>
				
					<linearGradient id="SVGID_64_" gradientUnits="userSpaceOnUse" x1="7.4123" y1="67.0778" x2="19.1223" y2="78.9378" gradientTransform="matrix(1 0 0 -1 0 102)">
					<stop  offset="0" style="stop-color:#CCCCCC;stop-opacity:0.8"/>
					<stop  offset="1" style="stop-color:#999999;stop-opacity:0.4"/>
				</linearGradient>
				<circle class="st64" cx="14" cy="28.2" r="5.2"/>
			</g>
			<g>
				
					<linearGradient id="SVGID_65_" gradientUnits="userSpaceOnUse" x1="84.8123" y1="67.0778" x2="96.5223" y2="78.9378" gradientTransform="matrix(1 0 0 -1 0 102)">
					<stop  offset="0" style="stop-color:#CCCCCC;stop-opacity:0.8"/>
					<stop  offset="1" style="stop-color:#999999;stop-opacity:0.4"/>
				</linearGradient>
				<circle class="st65" cx="91.4" cy="28.2" r="5.2"/>
			</g>
			<g>
				
					<linearGradient id="SVGID_66_" gradientUnits="userSpaceOnUse" x1="46.1095" y1="0.1405" x2="57.8195" y2="11.9905" gradientTransform="matrix(1 0 0 -1 0 102)">
					<stop  offset="0" style="stop-color:#CCCCCC;stop-opacity:0.8"/>
					<stop  offset="1" style="stop-color:#999999;stop-opacity:0.4"/>
				</linearGradient>
				<circle class="st66" cx="52.7" cy="95.2" r="5.2"/>
			</g>
			<g>
				
					<linearGradient id="SVGID_67_" gradientUnits="userSpaceOnUse" x1="7.4123" y1="22.0978" x2="19.1223" y2="33.9578" gradientTransform="matrix(1 0 0 -1 0 102)">
					<stop  offset="0" style="stop-color:#CCCCCC;stop-opacity:0.8"/>
					<stop  offset="1" style="stop-color:#999999;stop-opacity:0.4"/>
				</linearGradient>
				<circle class="st67" cx="14" cy="73.2" r="5.2"/>
			</g>
			<g>
				
					<linearGradient id="SVGID_68_" gradientUnits="userSpaceOnUse" x1="84.8123" y1="22.0978" x2="96.5223" y2="33.9578" gradientTransform="matrix(1 0 0 -1 0 102)">
					<stop  offset="0" style="stop-color:#CCCCCC;stop-opacity:0.8"/>
					<stop  offset="1" style="stop-color:#999999;stop-opacity:0.4"/>
				</linearGradient>
				<circle class="st68" cx="91.4" cy="73.2" r="5.2"/>
			</g>
			<g>
				
					<linearGradient id="SVGID_69_" gradientUnits="userSpaceOnUse" x1="72.0647" y1="73.34" x2="72.0647" y2="97.1678" gradientTransform="matrix(1 0 0 -1 0 102)">
					<stop  offset="0" style="stop-color:#CCCCCC;stop-opacity:0.8"/>
					<stop  offset="1" style="stop-color:#999999;stop-opacity:0.4"/>
				</linearGradient>
				<path class="st69" d="M91.4,28.7c-0.1,0-0.2,0-0.2-0.1l-38.7-23c-0.2-0.1-0.2-0.4-0.1-0.6c0.1-0.2,0.4-0.2,0.5-0.1l38.7,23
					c0.2,0.1,0.3,0.4,0.1,0.6C91.7,28.6,91.6,28.7,91.4,28.7z"/>
			</g>
			<g>
				
					<linearGradient id="SVGID_70_" gradientUnits="userSpaceOnUse" x1="33.3608" y1="74.18" x2="33.3608" y2="51.37" gradientTransform="matrix(1 0 0 -1 0 102)">
					<stop  offset="0" style="stop-color:#CCCCCC;stop-opacity:0.8"/>
					<stop  offset="1" style="stop-color:#999999;stop-opacity:0.4"/>
				</linearGradient>
				<path class="st70" d="M52.7,50.6c-0.1,0-0.1,0-0.2-0.1l-38.7-22c-0.2-0.1-0.3-0.4-0.2-0.6c0.1-0.2,0.4-0.3,0.6-0.2c0,0,0,0,0,0
					l38.7,22c0.2,0.1,0.3,0.4,0.2,0.6C53,50.5,52.9,50.6,52.7,50.6z"/>
			</g>
			<g>
				
					<linearGradient id="SVGID_71_" gradientUnits="userSpaceOnUse" x1="72.0569" y1="6.3995" x2="72.0569" y2="29.1995" gradientTransform="matrix(1 0 0 -1 0 102)">
					<stop  offset="0" style="stop-color:#CCCCCC;stop-opacity:0.8"/>
					<stop  offset="1" style="stop-color:#999999;stop-opacity:0.4"/>
				</linearGradient>
				<path class="st71" d="M52.7,95.6c-0.2,0-0.3-0.1-0.4-0.2c-0.1-0.2,0-0.5,0.2-0.6l38.7-22c0.2-0.1,0.5,0,0.6,0.2
					c0.1,0.2,0.1,0.4-0.1,0.6c0,0,0,0,0,0l-38.7,22C52.8,95.6,52.8,95.6,52.7,95.6z"/>
			</g>
			<g>
				
					<linearGradient id="SVGID_72_" gradientUnits="userSpaceOnUse" x1="33.3463" y1="52.2027" x2="33.3463" y2="28.36" gradientTransform="matrix(1 0 0 -1 0 102)">
					<stop  offset="0" style="stop-color:#CCCCCC;stop-opacity:0.8"/>
					<stop  offset="1" style="stop-color:#999999;stop-opacity:0.4"/>
				</linearGradient>
				<path class="st72" d="M14,73.6c-0.2,0-0.4-0.2-0.4-0.4c0-0.1,0.1-0.3,0.2-0.4l38.7-23c0.2-0.1,0.5-0.1,0.6,0.1c0,0,0,0,0,0
					c0.1,0.2,0,0.5-0.2,0.6l-38.7,23C14.1,73.6,14.1,73.6,14,73.6z"/>
			</g>
			<g>
				
					<linearGradient id="SVGID_73_" gradientUnits="userSpaceOnUse" x1="72.0584" y1="52.202" x2="72.0584" y2="28.36" gradientTransform="matrix(1 0 0 -1 0 102)">
					<stop  offset="0" style="stop-color:#CCCCCC;stop-opacity:0.8"/>
					<stop  offset="1" style="stop-color:#999999;stop-opacity:0.4"/>
				</linearGradient>
				<path class="st73" d="M91.4,73.6c-0.1,0-0.2,0-0.2-0.1l-38.7-23c-0.2-0.1-0.3-0.4-0.1-0.6c0,0,0,0,0,0c0.1-0.2,0.4-0.3,0.6-0.1
					c0,0,0,0,0,0l38.7,23c0.2,0.1,0.3,0.4,0.2,0.6c0,0,0,0,0,0C91.7,73.6,91.6,73.6,91.4,73.6z"/>
			</g>
			<g>
				
					<linearGradient id="SVGID_74_" gradientUnits="userSpaceOnUse" x1="33.3393" y1="29.2017" x2="33.3393" y2="6.3863" gradientTransform="matrix(1 0 0 -1 0 102)">
					<stop  offset="0" style="stop-color:#CCCCCC;stop-opacity:0.8"/>
					<stop  offset="1" style="stop-color:#999999;stop-opacity:0.4"/>
				</linearGradient>
				<path class="st74" d="M52.7,95.6c-0.1,0-0.1,0-0.2,0l-38.7-22c-0.2-0.1-0.3-0.3-0.2-0.6c0.1-0.2,0.3-0.3,0.6-0.2c0,0,0,0,0.1,0
					l38.7,22c0.2,0.1,0.3,0.4,0.2,0.6C53,95.6,52.8,95.6,52.7,95.6z"/>
			</g>
		</g>
		<circle class="st75" cx="52.7" cy="49.8" r="3.1"/>
		<polygon class="st77 a2"  points="57.5,41.5 58,14 82,28.6"/>
		<circle class="st76" cx="90.3" cy="31" r="4.8"/>
		<line class="st77 a3" x1="30.5" y1="63.3" x2="50.5" y2="51.8"/>
		<g class="a1">
			<polyline class="st76" points="22.1,58.5 37.2,49.5 0.1,27.8 0,71.7 22.1,58.5"/>
			<polyline class="st77" points="8.4,60.6 36,45 19.8,35.3 "/>
		</g>
	</g>
</g>
</svg>
