<?xml version="1.0" encoding="utf-8"?>
<!-- Generator: Adobe Illustrator 24.1.0, SVG Export Plug-In . SVG Version: 6.00 Build 0)  -->
<svg version="1.1" id="图层_1" xmlns="http://www.w3.org/2000/svg" xmlns:xlink="http://www.w3.org/1999/xlink" x="0px" y="0px"
	 viewBox="0 0 109.5 91.4" style="enable-background:new 0 0 109.5 91.4;" xml:space="preserve">
<style type="text/css">
	.st0{opacity:0.3;}
	.st1{opacity:0.3;fill:url(#SVGID_1_);enable-background:new    ;}
	.st2{opacity:0.5;fill:url(#SVGID_2_);enable-background:new    ;}
	.st3{opacity:0.5;fill:url(#SVGID_3_);enable-background:new    ;}
	.st4{opacity:0.5;fill:url(#SVGID_4_);enable-background:new    ;}
	.st5{opacity:0.5;fill:url(#SVGID_5_);enable-background:new    ;}
	.st6{opacity:0.5;fill:url(#SVGID_6_);enable-background:new    ;}
	.st7{fill:url(#SVGID_7_);}
	.st8{fill:none;stroke:#00AF92;stroke-miterlimit:10;}
	.st9{fill:url(#SVGID_8_);}
	.st10{fill:url(#SVGID_9_);}
	.st11{fill:none;stroke:#00AF92;stroke-width:0.75;stroke-linecap:round;stroke-miterlimit:10;}
	.st12{fill:none;stroke:#00AF92;stroke-width:0.75;stroke-miterlimit:10;}
	.st13{opacity:0.15;fill:none;stroke:#00AF92;stroke-width:0.75;stroke-miterlimit:10;enable-background:new    ;}
	.st14{fill:none;stroke:#00AF92;stroke-width:0.75;stroke-linecap:round;stroke-linejoin:round;}
	.st15{opacity:0.15;fill:#00AF92;enable-background:new;}
	.st16{fill:#00AF92;}
	@keyframes a1 {
        50% {transform: rotate(27deg);}
	}
    @keyframes a2 {
        50% {transform: translate(-4px, 3px);}
    }
    @keyframes a3 {
        50% {transform: rotate(242deg);}
    }
	.a1 {transform-origin: 53px 42px;animation:a1 3s linear infinite;}
	.a2 {animation:a2 3s linear infinite;}
	.a3 {transform-origin: 51px 50px;animation:a3 3s infinite;}
</style>
<g class="st0">
	<g>
		<linearGradient id="SVGID_1_" gradientUnits="userSpaceOnUse" x1="84.0793" y1="10.6794" x2="154.8493" y2="-76.8306" gradientTransform="matrix(1 0 0 -1 0 94)">
			<stop  offset="0" style="stop-color:#808080"/>
			<stop  offset="1" style="stop-color:#808080"/>
		</linearGradient>
		<circle class="st1" cx="55" cy="47.4" r="44"/>
	</g>
	<g class="a2">
		<g>
			
				<linearGradient id="SVGID_2_" gradientUnits="userSpaceOnUse" x1="505.8899" y1="-348.3679" x2="430.3699" y2="-351.8779" gradientTransform="matrix(1 0 0 -1 -418.31 -298.34)">
				<stop  offset="0" style="stop-color:#CCCCCC"/>
				<stop  offset="1" style="stop-color:#999999;stop-opacity:0.8"/>
			</linearGradient>
			<path class="st2" d="M55,42.8c-11.1,0-20.2-4.1-20.2-9.2v28.4H35c1,4.6,9.6,8.3,20.1,8.3s19.1-3.6,20.1-8.3h0.1V33.7
				C75.2,38.7,66.2,42.8,55,42.8z"/>
		</g>
		<g>
			
				<linearGradient id="SVGID_3_" gradientUnits="userSpaceOnUse" x1="55.03" y1="70.57" x2="55.03" y2="20.36" gradientTransform="matrix(1 0 0 -1 0 94)">
				<stop  offset="0" style="stop-color:#808080;stop-opacity:0.8"/>
				<stop  offset="1" style="stop-color:#666666"/>
			</linearGradient>
			<ellipse class="st3" cx="55" cy="33.6" rx="20.2" ry="9.2"/>
		</g>
		<g>
			
				<linearGradient id="SVGID_4_" gradientUnits="userSpaceOnUse" x1="55.03" y1="61.39" x2="55.03" y2="11.19" gradientTransform="matrix(1 0 0 -1 0 94)">
				<stop  offset="0" style="stop-color:#808080;stop-opacity:0.8"/>
				<stop  offset="1" style="stop-color:#333333"/>
			</linearGradient>
			<ellipse class="st4" cx="55" cy="42.8" rx="20.2" ry="9.2"/>
		</g>
		<g>
			
				<linearGradient id="SVGID_5_" gradientUnits="userSpaceOnUse" x1="55.03" y1="52.22" x2="55.03" y2="2.02" gradientTransform="matrix(1 0 0 -1 0 94)">
				<stop  offset="0" style="stop-color:#808080;stop-opacity:0.8"/>
				<stop  offset="1" style="stop-color:#333333"/>
			</linearGradient>
			<ellipse class="st5" cx="55" cy="52" rx="20.2" ry="9.2"/>
		</g>
		<g>
			
				<linearGradient id="SVGID_6_" gradientUnits="userSpaceOnUse" x1="55.03" y1="43.05" x2="55.03" y2="-7.15" gradientTransform="matrix(1 0 0 -1 0 94)">
				<stop  offset="0" style="stop-color:#808080;stop-opacity:0.5"/>
				<stop  offset="1" style="stop-color:#333333"/>
			</linearGradient>
			<ellipse class="st6" cx="55" cy="61.2" rx="20.2" ry="9.2"/>
		</g>
	</g>
	
	<g>
		
			<linearGradient id="SVGID_7_" gradientUnits="userSpaceOnUse" x1="439.7606" y1="-360.8241" x2="464.0106" y2="-280.6642" gradientTransform="matrix(1 0 0 -1 -418.31 -298.34)">
			<stop  offset="0" style="stop-color:#CCCCCC;stop-opacity:0.8"/>
			<stop  offset="1" style="stop-color:#999999;stop-opacity:0.4"/>
		</linearGradient>
		<path class="st7" d="M18.4,47.4c0-19,14.5-34.8,33.4-36.5c1.9-0.2,3.3-1.8,3.3-3.6l0,0c0-2-1.6-3.7-3.7-3.7c-0.1,0-0.2,0-0.3,0
			C26.8,5.7,9,27.1,11.1,51.3c0.5,5,1.8,10,3.9,14.6c0.9,1.8,3.1,2.6,4.9,1.8c0.1,0,0.2-0.1,0.3-0.1l0,0c1.6-1,2.3-3,1.5-4.7
			C19.5,58,18.3,52.7,18.4,47.4z"/>
	</g>
	<path class="st8" d="M117.4,49.7"/>
	<g>
		
			<linearGradient id="SVGID_8_" gradientUnits="userSpaceOnUse" x1="473.35" y1="-334.0995" x2="517.3922" y2="-334.0995" gradientTransform="matrix(1 0 0 -1 -418.31 -298.34)">
			<stop  offset="0" style="stop-color:#CCCCCC;stop-opacity:0.8"/>
			<stop  offset="1" style="stop-color:#999999;stop-opacity:0.4"/>
		</linearGradient>
		<path class="st9" d="M55,7.2L55,7.2c0,1.9,1.4,3.5,3.3,3.6c20.2,1.8,35.1,19.7,33.2,39.9c-0.4,4.2-1.5,8.3-3.2,12.1
			c-0.8,1.7-0.2,3.8,1.5,4.7l0,0c1.8,1,4,0.4,5-1.4C94.9,66,95,66,95,65.9c10.2-22.1,0.6-48.2-21.4-58.4C69,5.3,64,4,59,3.5
			c-2-0.2-3.8,1.3-3.9,3.3C55,7,55,7.1,55,7.2z"/>
	</g>
	<g>
		
			<linearGradient id="SVGID_9_" gradientUnits="userSpaceOnUse" x1="502.4398" y1="-369.3387" x2="427.7598" y2="-383.3787" gradientTransform="matrix(1 0 0 -1 -418.31 -298.34)">
			<stop  offset="0" style="stop-color:#CCCCCC;stop-opacity:0.8"/>
			<stop  offset="1" style="stop-color:#999999;stop-opacity:0.4"/>
		</linearGradient>
		<path class="st10" d="M55,84.1c-11.9,0-23.1-5.8-30-15.5c-1.1-1.6-3.2-2-4.8-1.1l0,0c-1.8,1-2.4,3.3-1.3,5
			c0.1,0.1,0.1,0.2,0.2,0.3c14,19.9,41.5,24.6,61.3,10.6c4.1-2.9,7.7-6.5,10.6-10.6c1.2-1.7,0.8-3.9-0.9-5.1
			c-0.1-0.1-0.2-0.1-0.3-0.2l0,0c-1.6-1-3.7-0.5-4.8,1.1C78.1,78.3,67,84.1,55,84.1z"/>
	</g>
</g>
<g>
	<path class="st11" d="M31.9,43.7c-0.4,3.8,4.4,7.6,11.5,9.8"/>
	<path class="st11" d="M31.9,39.1c0.1,3.6,4.9,7.2,11.7,9.2"/>
	<line class="st11" x1="31.9" y1="39.5" x2="31.9" y2="44.8"/>
	<line class="st11" x1="43.6" y1="48.3" x2="43.6" y2="53.4"/>
	<path class="st15" d="M31.8,43.8v-4.2v-0.5c0.1,3.6,4.9,7.2,11.7,9.2l0,0v5.1l-0.1,0.1C36.2,51.3,31.4,47.5,31.8,43.8L31.8,43.8z"/>
</g>

<ellipse class="st12" cx="58.3" cy="28.3" rx="20.2" ry="9.2"/>
<ellipse class="st13" cx="58.6" cy="28.3" rx="14.3" ry="6.5"/>
<path class="st12" d="M38.1,57.7c0,5.1,9,9.2,20.2,9.2s20.2-4.2,20.2-9.2"/>
<path class="st11" d="M64.9,42.2c7.9-1.2,13.6-4.6,13.6-8.7"/>
<g class="a1">
	<path class="st14" d="M81.7,4.5c23.9,14.5,31.4,45.6,17,69.4c-0.1,0.2-0.2,0.3-0.3,0.5"/>
	<path class="st14" d="M109.1,51.4c-0.3,6.8-2,13.4-4.9,19.5"/>
	<path class="st14" d="M12.6,76.5C7,68,4,58.1,4,47.9"/>
	<path class="st14" d="M20.9,85.1c-2.1-1.7-4.1-3.6-5.8-5.6"/>
	<path class="st14" d="M40.6,84.7c-6.2-2.7-11.6-7-15.5-12.6c-1.2-1.7-3.5-2-5.1-0.9s-2,3.5-0.9,5.1c1.4,1.9,2.9,3.6,4.7,5.1"/>
</g>
<line class="st11" x1="78.5" y1="28.8" x2="78.5" y2="57.9"/>
<line class="st11" x1="76.1" y1="32.8" x2="76.1" y2="37.4"/>
<line class="st11" x1="73.5" y1="34.3" x2="73.5" y2="39"/>
<line class="st11" x1="70.7" y1="35.6" x2="70.7" y2="40.3"/>
<line class="st11" x1="67.7" y1="36.5" x2="67.7" y2="41.2"/>
<line class="st11" x1="64.6" y1="37.4" x2="64.6" y2="42.1"/>
<path class="st11" d="M58.3,73.1"/>
<path class="st11" d="M78.5,61.5"/>
<line class="st11" x1="38.1" y1="28.3" x2="38.1" y2="46.1"/>
<line class="st11" x1="38.1" y1="51.4" x2="38.1" y2="58.7"/>
<circle class="st15" cx="4" cy="47.9" r="4"/>
<circle class="st15" cx="91.3" cy="64.7" r="9.8"/>
<circle class="st15" cx="91.7" cy="64.7" r="6"/>
<circle class="st15" cx="51.3" cy="7.3" r="7.3"/>
<circle class="st15" cx="51.3" cy="7.3" r="3.8"/>
<circle class="st16" cx="91.7" cy="64.7" r="3.5"/>
<polygon class="st16" points="46.9,52.2 45.3,51.9 45.3,50.2 46.9,50.5 "/>
<polygon class="st16" points="49.3,52.5 47.7,52.3 47.7,50.6 49.3,50.8 "/>
<polyline class="st16" points="50.4,50.9 52,51 52,52.7 50.4,52.6 "/>
</svg>
