<?xml version="1.0" encoding="utf-8"?>
<!-- Generator: Adobe Illustrator 24.1.0, SVG Export Plug-In . SVG Version: 6.00 Build 0)  -->
<svg version="1.1" id="图层_1" xmlns="http://www.w3.org/2000/svg" xmlns:xlink="http://www.w3.org/1999/xlink" x="0px" y="0px"
	 viewBox="0 0 79.3 94" style="enable-background:new 0 0 79.3 94;" xml:space="preserve">
<style type="text/css">
	.st0{fill:url(#SVGID_1_);}
	.st1{fill:url(#SVGID_2_);}
	.st2{fill:url(#SVGID_3_);}
	.st3{fill:url(#SVGID_4_);}
	.st4{fill:url(#SVGID_5_);}
	.st5{fill:url(#SVGID_6_);}
	.st6{opacity:0.35;}
	.st7{fill:url(#SVGID_7_);}
	.st8{opacity:0.92;}
	.st9{fill:url(#SVGID_8_);}
	.st10{fill:url(#SVGID_9_);}
	.st11{fill:url(#SVGID_10_);}
	.st12{fill:url(#SVGID_11_);}
	.st13{fill:url(#SVGID_12_);}
	.st14{fill:url(#SVGID_13_);}
	.st15{fill:url(#SVGID_14_);}
	.st16{fill:url(#SVGID_15_);}
	.st17{fill:url(#SVGID_16_);}
	.st18{fill:url(#SVGID_17_);}
	.st19{fill:none;stroke:#00AF92;stroke-width:0.75;stroke-linecap:round;stroke-linejoin:round;}
	.st20{opacity:0.15;fill:#00AF92;enable-background:new    ;}
	.st21{fill:#00AF92;stroke:#00AF92;stroke-width:0.75;stroke-linecap:round;stroke-linejoin:round;}
	
		.st22{opacity:0.15;fill:none;stroke:#00AF92;stroke-width:0.75;stroke-linecap:round;stroke-linejoin:round;enable-background:new    ;}
</style>
<g id="图层_2_1_">
	<g id="Diagram">
		<g>
			
				<linearGradient id="SVGID_1_" gradientUnits="userSpaceOnUse" x1="6242.7139" y1="94.3193" x2="6240.394" y2="82.1193" gradientTransform="matrix(-1 0 0 -1 6256.7002 96)">
				<stop  offset="0" style="stop-color:#FFFFFF"/>
				<stop  offset="1" style="stop-color:#FFFFFF"/>
			</linearGradient>
			<polygon class="st0" points="20.2,13.2 10.2,13.2 20.2,3.2 			"/>
		</g>
		
			<linearGradient id="SVGID_2_" gradientUnits="userSpaceOnUse" x1="43.4197" y1="58.965" x2="56.4897" y2="58.965" gradientTransform="matrix(1 0 0 -1 0 96)">
			<stop  offset="0" style="stop-color:#CCCCCC;stop-opacity:0.8"/>
			<stop  offset="1" style="stop-color:#999999;stop-opacity:0.4"/>
		</linearGradient>
		<path class="st1" d="M56.2,37.4H43.7c-0.2,0-0.3-0.2-0.3-0.4c0-0.2,0.1-0.3,0.3-0.3h12.4c0.2,0,0.3,0.2,0.3,0.4
			C56.4,37.2,56.3,37.4,56.2,37.4z"/>
		
			<linearGradient id="SVGID_3_" gradientUnits="userSpaceOnUse" x1="20.0697" y1="58.965" x2="40.9103" y2="58.965" gradientTransform="matrix(1 0 0 -1 0 96)">
			<stop  offset="0" style="stop-color:#CCCCCC;stop-opacity:0.8"/>
			<stop  offset="1" style="stop-color:#999999;stop-opacity:0.4"/>
		</linearGradient>
		<path class="st2" d="M40.6,37.4H20.4c-0.2,0-0.3-0.2-0.3-0.4c0-0.2,0.1-0.3,0.3-0.3h20.2c0.2,0,0.3,0.2,0.3,0.4
			C40.9,37.2,40.8,37.4,40.6,37.4z"/>
		
			<linearGradient id="SVGID_4_" gradientUnits="userSpaceOnUse" x1="20.06" y1="53.63" x2="47.92" y2="53.63" gradientTransform="matrix(1 0 0 -1 0 96)">
			<stop  offset="0" style="stop-color:#CCCCCC;stop-opacity:0.8"/>
			<stop  offset="1" style="stop-color:#999999;stop-opacity:0.4"/>
		</linearGradient>
		<path class="st3" d="M47.6,42.7H20.4c-0.2,0-0.4-0.2-0.4-0.4s0.2-0.4,0.4-0.4h27.2c0.2,0,0.4,0.2,0.4,0.4S47.8,42.7,47.6,42.7z"/>
		
			<linearGradient id="SVGID_5_" gradientUnits="userSpaceOnUse" x1="35.6397" y1="34.055" x2="56.4997" y2="34.055" gradientTransform="matrix(1 0 0 -1 0 96)">
			<stop  offset="0" style="stop-color:#CCCCCC;stop-opacity:0.8"/>
			<stop  offset="1" style="stop-color:#999999;stop-opacity:0.4"/>
		</linearGradient>
		<path class="st4" d="M56.2,62.3H35.9c-0.2,0-0.3-0.2-0.3-0.4c0-0.2,0.1-0.3,0.3-0.3h20.2c0.2,0,0.3,0.2,0.3,0.4
			C56.4,62.2,56.3,62.3,56.2,62.3z"/>
		
			<linearGradient id="SVGID_6_" gradientUnits="userSpaceOnUse" x1="43.4093" y1="28.715" x2="56.4807" y2="28.715" gradientTransform="matrix(1 0 0 -1 0 96)">
			<stop  offset="0" style="stop-color:#CCCCCC;stop-opacity:0.8"/>
			<stop  offset="1" style="stop-color:#999999;stop-opacity:0.4"/>
		</linearGradient>
		<path class="st5" d="M56.2,67.6H43.7c-0.2,0-0.3-0.2-0.3-0.4c0-0.2,0.1-0.3,0.3-0.3c0,0,0,0,0,0h12.4c0.2,0,0.3,0.2,0.3,0.3
			c0,0,0,0,0,0C56.5,67.5,56.4,67.6,56.2,67.6z"/>
		<g class="st6">
			<g>
				
					<linearGradient id="SVGID_7_" gradientUnits="userSpaceOnUse" x1="6241.189" y1="94.4393" x2="6238.8691" y2="82.2393" gradientTransform="matrix(-1 0 0 -1 6256.7002 96)">
					<stop  offset="0" style="stop-color:#FFFFFF"/>
					<stop  offset="1" style="stop-color:#FFFFFF"/>
				</linearGradient>
				<polygon class="st7" points="21.7,13 11.8,13 21.7,3.1 				"/>
			</g>
			<g class="st8">
				<g>
					
						<linearGradient id="SVGID_8_" gradientUnits="userSpaceOnUse" x1="30.336" y1="5.6497" x2="49.386" y2="71.0597" gradientTransform="matrix(1 0 0 -1 0 96)">
						<stop  offset="0" style="stop-color:#CCCCCC;stop-opacity:0.8"/>
						<stop  offset="1" style="stop-color:#999999;stop-opacity:0.4"/>
					</linearGradient>
					<path class="st9" d="M72.8,82.4H6.5c-0.9,0-1.7-0.7-1.7-1.6c0,0,0,0,0,0V35.9l34.8,24.9l34.8-24.9v44.8
						C74.5,81.6,73.7,82.4,72.8,82.4C72.8,82.4,72.8,82.4,72.8,82.4z"/>
				</g>
				<g>
					
						<linearGradient id="SVGID_9_" gradientUnits="userSpaceOnUse" x1="41.4908" y1="43.7195" x2="30.4108" y2="141.0795" gradientTransform="matrix(1 0 0 -1 0 96)">
						<stop  offset="0" style="stop-color:#CCCCCC;stop-opacity:0.8"/>
						<stop  offset="1" style="stop-color:#999999;stop-opacity:0.4"/>
					</linearGradient>
					<polygon class="st10" points="4.8,35.9 39.6,60.8 74.4,35.9 39.6,11.1 					"/>
				</g>
			</g>
			<g>
				
					<linearGradient id="SVGID_10_" gradientUnits="userSpaceOnUse" x1="29.3755" y1="59.9297" x2="53.5255" y2="97.9997" gradientTransform="matrix(1 0 0 -1 0 96)">
					<stop  offset="0" style="stop-color:#CCCCCC;stop-opacity:0.8"/>
					<stop  offset="1" style="stop-color:#999999;stop-opacity:0.4"/>
				</linearGradient>
				<path class="st11" d="M21.7,3.1h41.1c2.8,0,5,2.2,5,5c0,0,0,0,0,0v18.1H16.8c-2.8,0-5-2.2-5-5V13"/>
			</g>
			<g>
				
					<linearGradient id="SVGID_11_" gradientUnits="userSpaceOnUse" x1="23.8075" y1="39.1469" x2="67.1475" y2="86.017" gradientTransform="matrix(1 0 0 -1 0 96)">
					<stop  offset="0" style="stop-color:#CCCCCC;stop-opacity:0.8"/>
					<stop  offset="1" style="stop-color:#999999;stop-opacity:0.4"/>
				</linearGradient>
				<path class="st12" d="M11.8,28h51c2.8,0,5,2.2,5,5v18.1l0,0h-51c-2.8,0-5-2.2-5-5V28L11.8,28z"/>
			</g>
			<g>
				
					<linearGradient id="SVGID_12_" gradientUnits="userSpaceOnUse" x1="29.235" y1="22.3329" x2="90.535" y2="75.8229" gradientTransform="matrix(1 0 0 -1 0 96)">
					<stop  offset="0" style="stop-color:#CCCCCC;stop-opacity:0.8"/>
					<stop  offset="1" style="stop-color:#999999;stop-opacity:0.4"/>
				</linearGradient>
				<path class="st13" d="M11.8,52.9h51c2.8,0,5,2.2,5,5v18.2l0,0h-51c-2.8,0-5-2.2-5-5V52.9L11.8,52.9z"/>
			</g>
			
				<linearGradient id="SVGID_13_" gradientUnits="userSpaceOnUse" x1="44.9447" y1="59.085" x2="58.0147" y2="59.085" gradientTransform="matrix(1 0 0 -1 0 96)">
				<stop  offset="0" style="stop-color:#CCCCCC;stop-opacity:0.8"/>
				<stop  offset="1" style="stop-color:#999999;stop-opacity:0.4"/>
			</linearGradient>
			<path class="st14" d="M57.7,37.3H45.2c-0.2,0-0.3-0.2-0.3-0.4c0-0.2,0.1-0.3,0.3-0.3h12.4c0.2,0,0.3,0.2,0.3,0.4
				C58,37.1,57.8,37.2,57.7,37.3z"/>
			
				<linearGradient id="SVGID_14_" gradientUnits="userSpaceOnUse" x1="21.5947" y1="59.085" x2="42.4353" y2="59.085" gradientTransform="matrix(1 0 0 -1 0 96)">
				<stop  offset="0" style="stop-color:#CCCCCC;stop-opacity:0.8"/>
				<stop  offset="1" style="stop-color:#999999;stop-opacity:0.4"/>
			</linearGradient>
			<path class="st15" d="M42.1,37.3H21.9c-0.2,0-0.3-0.2-0.3-0.4c0-0.2,0.1-0.3,0.3-0.3h20.2c0.2,0,0.3,0.2,0.3,0.4
				C42.4,37.1,42.3,37.2,42.1,37.3z"/>
			
				<linearGradient id="SVGID_15_" gradientUnits="userSpaceOnUse" x1="21.585" y1="53.75" x2="49.445" y2="53.75" gradientTransform="matrix(1 0 0 -1 0 96)">
				<stop  offset="0" style="stop-color:#CCCCCC;stop-opacity:0.8"/>
				<stop  offset="1" style="stop-color:#999999;stop-opacity:0.4"/>
			</linearGradient>
			<path class="st16" d="M49.1,42.6H21.9c-0.2,0-0.4-0.2-0.4-0.4s0.2-0.4,0.4-0.4h27.2c0.2,0,0.4,0.2,0.4,0.4S49.3,42.6,49.1,42.6z"
				/>
			
				<linearGradient id="SVGID_16_" gradientUnits="userSpaceOnUse" x1="37.1647" y1="34.175" x2="58.0247" y2="34.175" gradientTransform="matrix(1 0 0 -1 0 96)">
				<stop  offset="0" style="stop-color:#CCCCCC;stop-opacity:0.8"/>
				<stop  offset="1" style="stop-color:#999999;stop-opacity:0.4"/>
			</linearGradient>
			<path class="st17" d="M57.7,62.2H37.5c-0.2,0-0.3-0.2-0.3-0.4c0-0.2,0.1-0.3,0.3-0.3h20.2c0.2,0,0.3,0.2,0.3,0.4
				C58,62,57.8,62.2,57.7,62.2z"/>
			
				<linearGradient id="SVGID_17_" gradientUnits="userSpaceOnUse" x1="44.9343" y1="28.835" x2="58.0057" y2="28.835" gradientTransform="matrix(1 0 0 -1 0 96)">
				<stop  offset="0" style="stop-color:#CCCCCC;stop-opacity:0.8"/>
				<stop  offset="1" style="stop-color:#999999;stop-opacity:0.4"/>
			</linearGradient>
			<path class="st18" d="M57.7,67.5H45.2c-0.2,0-0.3-0.2-0.3-0.4c0-0.2,0.1-0.3,0.3-0.3c0,0,0,0,0,0h12.4c0.2,0,0.3,0.2,0.3,0.3
				c0,0,0,0,0,0C58,67.3,57.9,67.5,57.7,67.5z"/>
		</g>
		<polyline class="st19" points="14.9,78 54.5,77.3 8.4,46.6 8.4,71.3 		"/>
		<polygon class="st19" points="2.9,93.7 66.1,51.5 66.1,92.8 		"/>
		<path class="st20" d="M47.2,22.5H6.6V40c0,2.7,1.8,4.8,4,4.8h40.5V27.3C51.2,24.6,49.4,22.5,47.2,22.5z"/>
		<path class="st20" d="M75.9,0H49.6v9.3c0,1.4,1.2,2.6,2.6,2.6h26.3V2.6C78.5,1.2,77.3,0,75.9,0z"/>
		<line class="st19" x1="18.8" y1="30.1" x2="57.9" y2="30.1"/>
		<line class="st19" x1="14.1" y1="25.7" x2="27.4" y2="25.7"/>
		<line class="st19" x1="6.8" y1="74.6" x2="25.6" y2="74.6"/>
		<line class="st19" x1="4.5" y1="71.4" x2="10.9" y2="71.4"/>
		<line class="st19" x1="0.4" y1="78" x2="15.6" y2="78"/>
		<line class="st19" x1="1" y1="25.7" x2="15" y2="25.7"/>
		<line class="st19" x1="60.5" y1="30.1" x2="67.7" y2="30.1"/>
		<path class="st19" d="M47,5.8h16.9h1.2C67.2,5.8,71,5.5,71,10l0.1,8"/>
		<circle class="st21" cx="66.1" cy="51.6" r="1.8"/>
		<circle class="st22" cx="66.1" cy="51.6" r="12.8"/>
	</g>
</g>
</svg>
