<?xml version="1.0" encoding="utf-8"?>
<!-- Generator: Adobe Illustrator 24.1.0, SVG Export Plug-In . SVG Version: 6.00 Build 0)  -->
<svg version="1.1" id="图层_1" xmlns="http://www.w3.org/2000/svg" xmlns:xlink="http://www.w3.org/1999/xlink" x="0px" y="0px"
	 viewBox="0 0 106.9 94.9" style="enable-background:new 0 0 106.9 94.9;" xml:space="preserve">
<style type="text/css">
	.st0{opacity:0.15;fill:#00AF92;enable-background:new    ;}
	.st1{fill:none;stroke:#00AF92;stroke-width:0.75;stroke-linecap:round;stroke-linejoin:round;}
	.st2{opacity:0.3;}
	.st3{opacity:0.3;fill:url(#SVGID_1_);enable-background:new    ;}
	.st4{fill:url(#SVGID_2_);}
	.st5{fill:url(#SVGID_3_);}
	.st6{opacity:0.5;}
	.st7{fill:url(#SVGID_4_);}
	.st8{fill:url(#SVGID_5_);}
	.st9{fill:url(#SVGID_6_);}
	.st10{opacity:0.3;fill:url(#SVGID_7_);enable-background:new    ;}
	.st11{fill:url(#SVGID_8_);}
	.st12{fill:url(#SVGID_9_);}
	.st13{fill:url(#SVGID_10_);}
	.st14{fill:url(#SVGID_11_);}
	.st15{fill:url(#SVGID_12_);}
	.st16{opacity:0.3;fill:url(#SVGID_13_);}
	.st17{opacity:0.3;fill:url(#SVGID_14_);}
	.st18{opacity:0.3;fill:url(#SVGID_15_);}
	.st19{opacity:0.3;fill:url(#SVGID_16_);}
	.st20{opacity:0.3;fill:url(#SVGID_17_);}
	.st21{opacity:0.3;fill:url(#SVGID_18_);}
	.st22{opacity:0.15;}
	.st23{fill:#00AF92;}
</style>
<g id="图层_2_1_">
	<g id="Diagram">
		<circle class="st0" cx="31.6" cy="24.5" r="4.1"/>
		<circle class="st0" cx="14.2" cy="50.3" r="8.7"/>
		<path class="st1" d="M93.5,81.9C80.4,93.7,62,97.6,45.4,92"/>
		<g class="st2">
			
				<linearGradient id="SVGID_1_" gradientUnits="userSpaceOnUse" x1="95.051" y1="77.0486" x2="-580.429" y2="-427.0713" gradientTransform="matrix(1 0 0 -1 0 96)">
				<stop  offset="0" style="stop-color:#808080"/>
				<stop  offset="1" style="stop-color:#808080"/>
			</linearGradient>
			<circle class="st3" cx="59.9" cy="45.2" r="45.2"/>
		</g>
		<g class="st2">
			
				<linearGradient id="SVGID_2_" gradientUnits="userSpaceOnUse" x1="57.7375" y1="69.3145" x2="78.3175" y2="60.1145" gradientTransform="matrix(1 0 0 -1 0 96)">
				<stop  offset="0" style="stop-color:#CCCCCC;stop-opacity:0.8"/>
				<stop  offset="1" style="stop-color:#999999;stop-opacity:0.4"/>
			</linearGradient>
			<path class="st4" d="M65.7,31.8l-9.6,5.9h-6.6V11.3h6.6l9.6,5.9c1.7,1,2.7,2.9,2.7,4.8v5C68.4,29,67.3,30.8,65.7,31.8z"/>
		</g>
		<g class="st2">
			
				<linearGradient id="SVGID_3_" gradientUnits="userSpaceOnUse" x1="47.8998" y1="89.77" x2="51.1198" y2="41.42" gradientTransform="matrix(1 0 0 -1 0 96)">
				<stop  offset="0" style="stop-color:#CCCCCC;stop-opacity:0.8"/>
				<stop  offset="1" style="stop-color:#999999;stop-opacity:0.4"/>
			</linearGradient>
			<path class="st5" d="M56.1,11.3H36.3c3.6,0,6.6,5.9,6.6,13.2s-3,13.2-6.6,13.2h19.8c3.6,0,6.6-5.9,6.6-13.2S59.8,11.3,56.1,11.3z
				"/>
		</g>
		<g class="st6">
			
				<linearGradient id="SVGID_4_" gradientUnits="userSpaceOnUse" x1="28.41" y1="71.52" x2="68.15" y2="71.52" gradientTransform="matrix(1 0 0 -1 0 96)">
				<stop  offset="0" style="stop-color:#CCCCCC;stop-opacity:0.8"/>
				<stop  offset="1" style="stop-color:#999999;stop-opacity:0.4"/>
			</linearGradient>
			<ellipse class="st7" cx="36.3" cy="24.5" rx="6.6" ry="13.2"/>
		</g>
		<g class="st6">
			
				<linearGradient id="SVGID_5_" gradientUnits="userSpaceOnUse" x1="35.7314" y1="73.6648" x2="94.8014" y2="56.0648" gradientTransform="matrix(1 0 0 -1 0 96)">
				<stop  offset="0" style="stop-color:#CCCCCC;stop-opacity:0.8"/>
				<stop  offset="1" style="stop-color:#999999;stop-opacity:0.4"/>
			</linearGradient>
			<ellipse class="st8" cx="42.9" cy="24.5" rx="6.6" ry="13.2"/>
		</g>
		<g class="st6">
			
				<linearGradient id="SVGID_6_" gradientUnits="userSpaceOnUse" x1="42.3307" y1="73.6624" x2="101.3907" y2="56.0624" gradientTransform="matrix(1 0 0 -1 0 96)">
				<stop  offset="0" style="stop-color:#CCCCCC;stop-opacity:0.8"/>
				<stop  offset="1" style="stop-color:#999999;stop-opacity:0.4"/>
			</linearGradient>
			<ellipse class="st9" cx="49.5" cy="24.5" rx="6.6" ry="13.2"/>
		</g>
		<g class="st2">
			
				<linearGradient id="SVGID_7_" gradientUnits="userSpaceOnUse" x1="357.1776" y1="-2580.9456" x2="377.7575" y2="-2590.1455" gradientTransform="matrix(-1 0 0 1 419.2 2644.6599)">
				<stop  offset="0" style="stop-color:#808080"/>
				<stop  offset="1" style="stop-color:#808080"/>
			</linearGradient>
			<path class="st10" d="M54.1,58.6l9.6-5.9h6.6v26.4h-6.6l-9.6-5.9c-1.7-1-2.7-2.9-2.7-4.8v-5C51.4,61.5,52.4,59.6,54.1,58.6z"/>
		</g>
		<g class="st2">
			
				<linearGradient id="SVGID_8_" gradientUnits="userSpaceOnUse" x1="347.3342" y1="-2560.4805" x2="350.5543" y2="-2608.8406" gradientTransform="matrix(-1 0 0 1 419.2 2644.6599)">
				<stop  offset="0" style="stop-color:#CCCCCC;stop-opacity:0.8"/>
				<stop  offset="1" style="stop-color:#999999;stop-opacity:0.4"/>
			</linearGradient>
			<path class="st11" d="M63.7,79.1h19.8c-3.6,0-6.6-5.9-6.6-13.2s3-13.2,6.6-13.2H63.7c-3.6,0-6.6,5.9-6.6,13.2S60,79.1,63.7,79.1z
				"/>
		</g>
		<g class="st2">
			
				<linearGradient id="SVGID_9_" gradientUnits="userSpaceOnUse" x1="327.85" y1="-2578.75" x2="367.59" y2="-2578.75" gradientTransform="matrix(-1 0 0 1 419.2 2644.6599)">
				<stop  offset="0" style="stop-color:#CCCCCC;stop-opacity:0.8"/>
				<stop  offset="1" style="stop-color:#999999;stop-opacity:0.4"/>
			</linearGradient>
			<ellipse class="st12" cx="83.4" cy="65.9" rx="6.6" ry="13.2"/>
		</g>
		<g class="st2">
			
				<linearGradient id="SVGID_10_" gradientUnits="userSpaceOnUse" x1="335.1781" y1="-2576.6067" x2="394.238" y2="-2594.2065" gradientTransform="matrix(-1 0 0 1 419.2 2644.6599)">
				<stop  offset="0" style="stop-color:#CCCCCC;stop-opacity:0.8"/>
				<stop  offset="1" style="stop-color:#999999;stop-opacity:0.4"/>
			</linearGradient>
			<ellipse class="st13" cx="76.8" cy="65.9" rx="6.6" ry="13.2"/>
		</g>
		<g class="st2">
			
				<linearGradient id="SVGID_11_" gradientUnits="userSpaceOnUse" x1="341.768" y1="-2576.6067" x2="400.828" y2="-2594.2065" gradientTransform="matrix(-1 0 0 1 419.2 2644.6599)">
				<stop  offset="0" style="stop-color:#CCCCCC;stop-opacity:0.8"/>
				<stop  offset="1" style="stop-color:#999999;stop-opacity:0.4"/>
			</linearGradient>
			<ellipse class="st14" cx="70.2" cy="65.9" rx="6.6" ry="13.2"/>
		</g>
		<g class="st2">
			
				<linearGradient id="SVGID_12_" gradientUnits="userSpaceOnUse" x1="59.89" y1="29.71" x2="59.89" y2="71.9301" gradientTransform="matrix(1 0 0 -1 0 96)">
				<stop  offset="0" style="stop-color:#CCCCCC;stop-opacity:0.8"/>
				<stop  offset="1" style="stop-color:#999999;stop-opacity:0.4"/>
			</linearGradient>
			<path class="st15" d="M57.1,66.3H26c-5.9-0.2-10.6-5.1-10.4-11.1C15.8,49.6,20.3,45,26,44.8h67.8c5.5,0,10-4.5,10-10
				s-4.5-10-10-10H62.7c-0.2,0-0.4-0.2-0.4-0.4l0,0c0-0.2,0.2-0.4,0.4-0.4c0,0,0,0,0,0h31.1c5.9,0.2,10.6,5.1,10.4,11.1
				c-0.2,5.7-4.7,10.2-10.4,10.4H26c-5.5,0-10,4.5-10,10s4.5,10,10,10h31.1c0.2,0,0.3,0.2,0.3,0.4C57.3,66.1,57.2,66.3,57.1,66.3z"
				/>
		</g>
		
			<linearGradient id="SVGID_13_" gradientUnits="userSpaceOnUse" x1="15.25" y1="71.52" x2="17.88" y2="71.52" gradientTransform="matrix(1 0 0 -1 0 96)">
			<stop  offset="0" style="stop-color:#CCCCCC;stop-opacity:0.8"/>
			<stop  offset="1" style="stop-color:#999999;stop-opacity:0.4"/>
		</linearGradient>
		<path class="st16" d="M16.6,25.8c-0.7,0-1.3-0.6-1.3-1.3c0-0.7,0.6-1.3,1.3-1.3c0.7,0,1.3,0.6,1.3,1.3c0,0,0,0,0,0
			C17.9,25.2,17.3,25.8,16.6,25.8z M16.6,23.9c-0.3,0-0.6,0.2-0.6,0.5c0,0,0,0,0,0c0,0.3,0.2,0.6,0.5,0.6s0.6-0.2,0.6-0.5
			c0-0.1,0-0.1,0-0.2C17.1,24.2,16.9,23.9,16.6,23.9z"/>
		
			<linearGradient id="SVGID_14_" gradientUnits="userSpaceOnUse" x1="22.78" y1="71.52" x2="25.42" y2="71.52" gradientTransform="matrix(1 0 0 -1 0 96)">
			<stop  offset="0" style="stop-color:#CCCCCC;stop-opacity:0.8"/>
			<stop  offset="1" style="stop-color:#999999;stop-opacity:0.4"/>
		</linearGradient>
		<path class="st17" d="M24.1,25.8c-0.7,0-1.3-0.6-1.3-1.3s0.6-1.3,1.3-1.3c0.7,0,1.3,0.6,1.3,1.3l0,0
			C25.4,25.2,24.8,25.8,24.1,25.8z M24.1,23.9c-0.3,0-0.6,0.2-0.6,0.6c0,0.3,0.3,0.6,0.6,0.6c0.3,0,0.6-0.3,0.6-0.6
			C24.7,24.2,24.4,23.9,24.1,23.9z"/>
		
			<linearGradient id="SVGID_15_" gradientUnits="userSpaceOnUse" x1="30.31" y1="71.5191" x2="32.95" y2="71.5191" gradientTransform="matrix(1 0 0 -1 0 96)">
			<stop  offset="0" style="stop-color:#CCCCCC;stop-opacity:0.8"/>
			<stop  offset="1" style="stop-color:#999999;stop-opacity:0.4"/>
		</linearGradient>
		<path class="st18" d="M31.6,25.8c-0.7,0-1.3-0.6-1.3-1.4c0-0.7,0.6-1.3,1.4-1.3c0.7,0,1.3,0.6,1.3,1.3
			C33,25.2,32.4,25.8,31.6,25.8C31.7,25.8,31.6,25.8,31.6,25.8z M31.6,23.9c-0.3,0-0.6,0.3-0.6,0.6c0,0.3,0.2,0.6,0.6,0.6
			c0.3,0,0.6-0.3,0.6-0.6C32.2,24.2,31.9,23.9,31.6,23.9z"/>
		
			<linearGradient id="SVGID_16_" gradientUnits="userSpaceOnUse" x1="86.81" y1="30.09" x2="89.45" y2="30.09" gradientTransform="matrix(1 0 0 -1 0 96)">
			<stop  offset="0" style="stop-color:#CCCCCC;stop-opacity:0.8"/>
			<stop  offset="1" style="stop-color:#999999;stop-opacity:0.4"/>
		</linearGradient>
		<path class="st19" d="M88.1,67.2c-0.7,0-1.3-0.6-1.3-1.3s0.6-1.3,1.3-1.3c0.7,0,1.3,0.6,1.3,1.3l0,0
			C89.4,66.6,88.9,67.2,88.1,67.2z M88.1,65.4c-0.3,0-0.6,0.2-0.6,0.5s0.2,0.6,0.5,0.6c0.1,0,0.1,0,0.2,0c0.3,0,0.5-0.3,0.5-0.6
			C88.6,65.6,88.4,65.4,88.1,65.4z"/>
		
			<linearGradient id="SVGID_17_" gradientUnits="userSpaceOnUse" x1="94.34" y1="30.0899" x2="96.98" y2="30.0899" gradientTransform="matrix(1 0 0 -1 0 96)">
			<stop  offset="0" style="stop-color:#CCCCCC;stop-opacity:0.8"/>
			<stop  offset="1" style="stop-color:#999999;stop-opacity:0.4"/>
		</linearGradient>
		<path class="st20" d="M95.7,67.2c-0.7,0-1.3-0.6-1.3-1.3c0-0.7,0.6-1.3,1.3-1.3c0.7,0,1.3,0.6,1.3,1.3
			C97,66.6,96.4,67.2,95.7,67.2C95.7,67.2,95.7,67.2,95.7,67.2z M95.7,65.4c-0.3,0-0.5,0.3-0.5,0.6c0,0.3,0.2,0.5,0.5,0.5
			c0.3,0,0.6-0.2,0.6-0.5s-0.2-0.6-0.5-0.6C95.8,65.3,95.7,65.3,95.7,65.4z"/>
		
			<linearGradient id="SVGID_18_" gradientUnits="userSpaceOnUse" x1="101.88" y1="30.09" x2="104.51" y2="30.09" gradientTransform="matrix(1 0 0 -1 0 96)">
			<stop  offset="0" style="stop-color:#CCCCCC;stop-opacity:0.8"/>
			<stop  offset="1" style="stop-color:#999999;stop-opacity:0.4"/>
		</linearGradient>
		<path class="st21" d="M103.2,67.2c-0.7,0-1.3-0.6-1.3-1.3s0.6-1.3,1.3-1.3s1.3,0.6,1.3,1.3c0,0,0,0,0,0
			C104.5,66.6,103.9,67.2,103.2,67.2z M103.2,65.4c-0.3,0-0.6,0.2-0.6,0.6c0,0.3,0.2,0.6,0.6,0.6c0.3,0,0.6-0.2,0.6-0.6c0,0,0,0,0,0
			C103.8,65.6,103.5,65.3,103.2,65.4C103.2,65.3,103.2,65.3,103.2,65.4z"/>
		<line class="st1" x1="0.4" y1="49.6" x2="53.5" y2="49.6"/>
		<line class="st1" x1="78.2" y1="28.5" x2="106.6" y2="28.5"/>
		<path class="st1" d="M96.2,33.3c4.2,0,7.7,3.4,7.7,7.7s-3.4,7.7-7.7,7.7"/>
		<path class="st1" d="M96.2,37.5c4.2,0,7.7,3.4,7.7,7.7s-3.4,7.7-7.7,7.7"/>
		<line class="st1" x1="96.2" y1="48.7" x2="96.2" y2="52.9"/>
		<line class="st1" x1="96.2" y1="33.3" x2="96.2" y2="37.5"/>
		<g class="st22">
			<path class="st23" d="M96.2,37.5c3.4,0,6.5,2.3,7.4,5.6v0.1v-0.1c1.2-4.1-1.2-8.3-5.3-9.5c-0.7-0.2-1.4-0.3-2.1-0.3V37.5z"/>
		</g>
		<ellipse class="st1" cx="31.1" cy="24.5" rx="6.3" ry="12.6"/>
		<path class="st1" d="M46.1,24.5c0-7-2.8-12.6-6.3-12.6"/>
		<path class="st1" d="M52.7,24.5c0-7-2.8-12.6-6.3-12.6"/>
		<path class="st1" d="M52.7,23.2c0.1,3.1-0.6,6.2-1.9,9"/>
		<path class="st1" d="M31.1,37.1H53l9-5.7c1.6-1,2.5-2.7,2.5-4.5v-4.7c0-1.8-1-3.6-2.5-4.5l-9-5.7H31.1"/>
		<path class="st0" d="M55,60h7.2c-1,3-1.2,6.2-0.6,9.2h-7.1C54,66.2,54.1,63,54.9,60"/>
		<path class="st0" d="M67.6,64.6c0,0-0.5,8.5,3.7,12.6h4c0,0-4-3.9-3.7-12.6H67.6z"/>
		<path class="st0" d="M49.2,60h4c-1,3-1.2,6.2-0.6,9.2h-3.9c-0.5-3.1-0.4-6.2,0.4-9.2"/>
		<path class="st1" d="M100.2,66.3c-4.3,8.4-11.2,15.3-19.8,19.4"/>
		<circle class="st1" cx="79.4" cy="86.2" r="1.1"/>
		<circle class="st1" cx="75.4" cy="87.7" r="1.1"/>
		<circle class="st1" cx="70.9" cy="89" r="1.1"/>
		<path class="st1" d="M15.5,55.4c0.2,4.5,3.1,8.4,7.3,10l25.6,0.2"/>
		<path class="st1" d="M21.3,44.2c0,0-10.3,2.7-7.7,12.9"/>
		<line class="st1" x1="99.5" y1="47.9" x2="99.5" y2="52.1"/>
		<line class="st1" x1="102.1" y1="46" x2="102.1" y2="50.2"/>
	</g>
</g>
</svg>
