<svg xmlns="http://www.w3.org/2000/svg" viewBox="0 0 485.4 135.4"><defs><style>.cls-1{fill:#00e599;}.cls-2{fill:#00af92;}.cls-3{fill:#010036;}</style></defs><g id="Layer_2" data-name="Layer 2"><g id="Layer_1-2" data-name="Layer 1"><polygon class="cls-1" points="0 23.7 0 114.3 58.8 135.4 58.8 44.1 122.4 20.7 64.7 0 0 23.7"/><polygon class="cls-2" points="75.5 87 75.5 52.9 122.4 69.7 75.5 87"/><polygon class="cls-2" points="63.6 95.9 63.6 135.3 122.4 113.5 122.4 74.2 63.6 95.9"/><path class="cls-3" d="M200.8,98.7h-12L164.7,59.4l-6.1-11.5h-.1l.4,10.5V98.7h-9.2V36.3h11.9l24,39.3,6.1,11.6h.1l-.3-10.6V36.3h9.3Z"/><path class="cls-3" d="M258.1,78.9H223.5c.6,4.1,2.1,7.3,4.5,9.5s5.4,3.2,9.2,3.2a16,16,0,0,0,7.7-1.6,8.2,8.2,0,0,0,4.2-4.8l8.5,3.5c-3.6,7.3-10.4,11-20.4,11-7.4,0-13.2-2.2-17.4-6.5s-6.3-10.4-6.3-18.1,2-13.8,6-18.1,9.7-6.5,17.1-6.5,12.3,2.1,16.1,6.3,5.8,9.9,5.8,16.9A29.6,29.6,0,0,1,258.1,78.9ZM227.7,61.8q-3.3,3.2-4.2,9.3H249c-.5-4-1.8-7-4-9.2a11.1,11.1,0,0,0-8.4-3.4A12.2,12.2,0,0,0,227.7,61.8Z"/><path class="cls-3" d="M308.3,57c4.2,4.4,6.3,10.4,6.3,18.1s-2.1,13.7-6.3,18.1-9.9,6.5-17.3,6.5-13.1-2.2-17.3-6.5-6.2-10.4-6.2-18.1,2.1-13.7,6.2-18.1,10-6.5,17.3-6.5S304.2,52.7,308.3,57Zm-27.2,5.8c-2.3,2.8-3.4,6.9-3.4,12.3s1.1,9.5,3.4,12.3,5.6,4.3,9.9,4.3,7.6-1.4,10-4.3,3.5-7,3.5-12.3-1.2-9.4-3.5-12.3a12.3,12.3,0,0,0-10-4.4C286.7,58.4,283.4,59.9,281.1,62.8Z"/><path class="cls-1" d="M389.7,65.9V98.7h-7.6l-.3-8.1a18.6,18.6,0,0,1-7.7,6.7,26.6,26.6,0,0,1-11.7,2.4,30,30,0,0,1-15.5-4,26.9,26.9,0,0,1-10.3-11.3A39.2,39.2,0,0,1,333,67c0-6.7,1.2-12.5,3.7-17.4a27.6,27.6,0,0,1,10.6-11.3,30.5,30.5,0,0,1,15.9-4c6.5,0,11.9,1.2,16.1,3.7a24.7,24.7,0,0,1,10,11.3l-9.4,4.5a14.9,14.9,0,0,0-6.2-7.9,19,19,0,0,0-10.3-2.6c-6.1,0-10.8,2-14.4,6.2s-5.2,10-5.2,17.5,1.6,13.5,5,17.6,8.3,6.2,14.7,6.2,9.2-1.2,12.3-3.7,4.8-6.1,4.8-10.9V74.4H361.1V65.9Z"/><path class="cls-1" d="M457.1,74.4q0,12.4-6.6,18.9c-4.4,4.2-10.9,6.4-19.3,6.4s-14.9-2.2-19.3-6.4-6.7-10.6-6.7-18.9V35.3h10.4V73.1c0,6.1,1.3,10.5,3.8,13.3s6.5,4.3,11.8,4.3,9.2-1.4,11.8-4.3,3.8-7.2,3.8-13.3V35.3h10.3Z"/><path class="cls-1" d="M485.4,98.7H475.1V35.3h10.3Z"/></g></g></svg>